<?xml version="1.0" encoding="UTF-8" standalone="no"?>
<!-- Created with Inkscape (http://www.inkscape.org/) -->

<svg
   xmlns:dc="http://purl.org/dc/elements/1.1/"
   xmlns:cc="http://creativecommons.org/ns#"
   xmlns:rdf="http://www.w3.org/1999/02/22-rdf-syntax-ns#"
   xmlns:svg="http://www.w3.org/2000/svg"
   xmlns="http://www.w3.org/2000/svg"
   xmlns:sodipodi="http://sodipodi.sourceforge.net/DTD/sodipodi-0.dtd"
   xmlns:inkscape="http://www.inkscape.org/namespaces/inkscape"
   id="svg3834"
   version="1.1"
   inkscape:version="0.47 r22583"
   width="26.999998"
   height="26.999998"
   xml:space="preserve"
   sodipodi:docname="Facebook_favicon.eps"><metadata
     id="metadata3840"><rdf:RDF><cc:Work
         rdf:about=""><dc:format>image/svg+xml</dc:format><dc:type
           rdf:resource="http://purl.org/dc/dcmitype/StillImage" /><dc:title></dc:title></cc:Work></rdf:RDF></metadata><defs
     id="defs3838"><inkscape:perspective
       sodipodi:type="inkscape:persp3d"
       inkscape:vp_x="0 : 0.5 : 1"
       inkscape:vp_y="0 : 1000 : 0"
       inkscape:vp_z="1 : 0.5 : 1"
       inkscape:persp3d-origin="0.5 : 0.33333333 : 1"
       id="perspective3842" /><clipPath
       clipPathUnits="userSpaceOnUse"
       id="clipPath3852"><path
         d="M 0,1400 0,0 l 1400,0 0,1400 -1400,0 z"
         id="path3854" /></clipPath></defs><sodipodi:namedview
     pagecolor="#ffffff"
     bordercolor="#666666"
     borderopacity="1"
     objecttolerance="10"
     gridtolerance="10"
     guidetolerance="10"
     inkscape:pageopacity="0"
     inkscape:pageshadow="2"
     inkscape:window-width="1920"
     inkscape:window-height="1006"
     id="namedview3836"
     showgrid="false"
     inkscape:zoom="1"
     inkscape:cx="58.593183"
     inkscape:cy="281.82476"
     inkscape:window-x="0"
     inkscape:window-y="623"
     inkscape:window-maximized="1"
     inkscape:current-layer="g3844" /><g
     id="g3844"
     inkscape:groupmode="layer"
     inkscape:label="ink_ext_XXXXXX"
     transform="matrix(1.25,0,0,-1.25,-74,101)"><g
       id="g3846"
       transform="matrix(0.01542857,0,0,0.01542857,59.2,59.2)"><g
         id="g3848"><g
           id="g3850"
           clip-path="url(#clipPath3852)"><path
             d="M 1400,80 C 1400,36.0195 1363.98,0 1320,0 L 80,0 C 36.0156,0 0,36.0195 0,80 l 0,1240 c 0,43.98 36.0156,80 80,80 l 1240,0 c 43.98,0 80,-36.02 80,-80 l 0,-1240"
             style="fill:#3d549e;fill-opacity:1;fill-rule:nonzero;stroke:none"
             id="path3856" /><path
             d="m 100,100 1200,0 0,200 -1200,0 0,-200 z"
             style="fill:#6b7fb9;fill-opacity:1;fill-rule:nonzero;stroke:none"
             id="path3858" /><path
             d="m 800,100 0,514.688 -136.094,0 0,185.312 136.094,0 c 0,0 0,75.938 0,158.281 0,124.379 80.391,238.599 265.63,238.599 75,0 130.46,-7.19 130.46,-7.19 l -4.37,-173.05 c 0,0 -56.56,0.55 -118.28,0.55 -66.8,0 -77.502,-30.784 -77.502,-81.878 0,-40.39 0,86.098 0,-135.312 l 201.092,0 -8.75,-185.312 -192.342,0 0,-514.688 L 800,100"
             style="fill:#ffffff;fill-opacity:1;fill-rule:nonzero;stroke:none"
             id="path3860" /></g></g></g></g></svg>