<?xml version="1.0" encoding="utf-8"?>
<!-- Generator: Adobe Illustrator 14.0.0, SVG Export Plug-In . SVG Version: 6.00 Build 43363)  -->
<!DOCTYPE svg PUBLIC "-//W3C//DTD SVG 1.1//EN" "http://www.w3.org/Graphics/SVG/1.1/DTD/svg11.dtd">
<svg version="1.1" id="Layer_1" xmlns="http://www.w3.org/2000/svg" xmlns:xlink="http://www.w3.org/1999/xlink" x="0px" y="0px"
	 width="61px" height="61px" viewBox="0 0 61 61" enable-background="new 0 0 61 61" xml:space="preserve">
<g>
	<g>
		<path fill="#0E2346" d="M30.499,58.803c-8.35-4.502-16.7,4.502-25.05,0c0-12.505,0-25.01,0-37.516c8.35,4.502,16.7-4.502,25.05,0
			C30.499,33.792,30.499,46.297,30.499,58.803z"/>
		<path fill="none" stroke="#0E2346" stroke-width="0.9758" stroke-linecap="round" stroke-linejoin="round" d="M30.499,58.803
			c-8.35-4.502-16.7,4.502-25.05,0c0-12.505,0-25.01,0-37.516c8.35,4.502,16.7-4.502,25.05,0
			C30.499,33.792,30.499,46.297,30.499,58.803z"/>
	</g>
	<g>
		<path fill="#0E2346" d="M30.499,58.803c8.351-4.502,16.701,4.502,25.052,0c0-12.505,0-25.01,0-37.516
			c-8.351,4.502-16.701-4.502-25.052,0C30.499,33.792,30.499,46.297,30.499,58.803z"/>
		<path fill="none" stroke="#0E2346" stroke-width="0.9758" stroke-linecap="round" stroke-linejoin="round" d="M30.499,58.803
			c8.351-4.502,16.701,4.502,25.052,0c0-12.505,0-25.01,0-37.516c-8.351,4.502-16.701-4.502-25.052,0
			C30.499,33.792,30.499,46.297,30.499,58.803z"/>
	</g>
	<g>
		<linearGradient id="SVGID_1_" gradientUnits="userSpaceOnUse" x1="5.5171" y1="37.4233" x2="30.3965" y2="37.4233">
			<stop  offset="0" style="stop-color:#FFFFFF"/>
			<stop  offset="0.3726" style="stop-color:#FAFAFB"/>
			<stop  offset="0.5069" style="stop-color:#EDEDEF"/>
			<stop  offset="0.6026" style="stop-color:#DDDCE2"/>
			<stop  offset="0.68" style="stop-color:#C8C7D1"/>
			<stop  offset="0.7463" style="stop-color:#AFAEBD"/>
			<stop  offset="0.805" style="stop-color:#9493A6"/>
			<stop  offset="0.8581" style="stop-color:#77778E"/>
			<stop  offset="0.9069" style="stop-color:#595B76"/>
			<stop  offset="0.9523" style="stop-color:#39415F"/>
			<stop  offset="0.9926" style="stop-color:#162849"/>
			<stop  offset="1" style="stop-color:#0E2346"/>
		</linearGradient>
		<path fill="url(#SVGID_1_)" d="M30.396,56.182c-8.293-4.501-16.586,4.501-24.879,0c0-12.506,0-25.011,0-37.517
			c8.293,4.502,16.586-4.502,24.879,0C30.396,31.171,30.396,43.676,30.396,56.182z"/>
		<path fill="none" stroke="#0E2346" stroke-width="0.9724" stroke-linecap="round" stroke-linejoin="round" d="M30.396,56.182
			c-8.293-4.501-16.586,4.501-24.879,0c0-12.506,0-25.011,0-37.517c8.293,4.502,16.586-4.502,24.879,0
			C30.396,31.171,30.396,43.676,30.396,56.182z"/>
	</g>
	<g>
		<linearGradient id="SVGID_2_" gradientUnits="userSpaceOnUse" x1="55.4814" y1="37.4238" x2="30.3965" y2="37.4238">
			<stop  offset="0" style="stop-color:#FFFFFF"/>
			<stop  offset="0.2569" style="stop-color:#F9F9FA"/>
			<stop  offset="0.3943" style="stop-color:#EBEAED"/>
			<stop  offset="0.5034" style="stop-color:#D9D8DE"/>
			<stop  offset="0.5977" style="stop-color:#C1C0CB"/>
			<stop  offset="0.6824" style="stop-color:#A6A5B5"/>
			<stop  offset="0.7602" style="stop-color:#88889C"/>
			<stop  offset="0.8328" style="stop-color:#6A6A83"/>
			<stop  offset="0.9013" style="stop-color:#494E6A"/>
			<stop  offset="0.9641" style="stop-color:#273353"/>
			<stop  offset="1" style="stop-color:#0E2346"/>
		</linearGradient>
		<path fill="url(#SVGID_2_)" d="M30.396,56.182c8.361-4.501,16.724,4.501,25.085,0c0-12.506,0-25.011,0-37.517
			c-8.361,4.502-16.724-4.502-25.085,0C30.396,31.171,30.396,43.676,30.396,56.182z"/>
		<path fill="none" stroke="#0E2346" stroke-width="0.9764" stroke-linecap="round" stroke-linejoin="round" d="M30.396,56.182
			c8.361-4.501,16.724,4.501,25.085,0c0-12.506,0-25.011,0-37.517c-8.361,4.502-16.724-4.502-25.085,0
			C30.396,31.171,30.396,43.676,30.396,56.182z"/>
	</g>
	<g>
		<linearGradient id="SVGID_3_" gradientUnits="userSpaceOnUse" x1="7.1753" y1="36.1113" x2="30.3965" y2="36.1113">
			<stop  offset="0" style="stop-color:#FFFFFF"/>
			<stop  offset="0.3726" style="stop-color:#FAFAFB"/>
			<stop  offset="0.5069" style="stop-color:#EDEDEF"/>
			<stop  offset="0.6026" style="stop-color:#DDDCE2"/>
			<stop  offset="0.68" style="stop-color:#C8C7D1"/>
			<stop  offset="0.7463" style="stop-color:#AFAEBD"/>
			<stop  offset="0.805" style="stop-color:#9493A6"/>
			<stop  offset="0.8581" style="stop-color:#77778E"/>
			<stop  offset="0.9069" style="stop-color:#595B76"/>
			<stop  offset="0.9523" style="stop-color:#39415F"/>
			<stop  offset="0.9926" style="stop-color:#162849"/>
			<stop  offset="1" style="stop-color:#0E2346"/>
		</linearGradient>
		<path fill="url(#SVGID_3_)" d="M30.396,54.869c-7.74-4.502-15.48,4.502-23.221,0c0-12.505,0-25.01,0-37.516
			c7.741,4.502,15.481-4.501,23.221,0C30.396,29.859,30.396,42.364,30.396,54.869z"/>
		<path fill="none" stroke="#0E2346" stroke-width="0.9394" stroke-linecap="round" stroke-linejoin="round" d="M30.396,54.869
			c-7.74-4.502-15.48,4.502-23.221,0c0-12.505,0-25.01,0-37.516c7.741,4.502,15.481-4.501,23.221,0
			C30.396,29.859,30.396,42.364,30.396,54.869z"/>
	</g>
	<g>
		<linearGradient id="SVGID_4_" gradientUnits="userSpaceOnUse" x1="53.6157" y1="36.1113" x2="30.3965" y2="36.1113">
			<stop  offset="0" style="stop-color:#FFFFFF"/>
			<stop  offset="0.2569" style="stop-color:#F9F9FA"/>
			<stop  offset="0.3943" style="stop-color:#EBEAED"/>
			<stop  offset="0.5034" style="stop-color:#D9D8DE"/>
			<stop  offset="0.5977" style="stop-color:#C1C0CB"/>
			<stop  offset="0.6824" style="stop-color:#A6A5B5"/>
			<stop  offset="0.7602" style="stop-color:#88889C"/>
			<stop  offset="0.8328" style="stop-color:#6A6A83"/>
			<stop  offset="0.9013" style="stop-color:#494E6A"/>
			<stop  offset="0.9641" style="stop-color:#273353"/>
			<stop  offset="1" style="stop-color:#0E2346"/>
		</linearGradient>
		<path fill="url(#SVGID_4_)" d="M30.396,54.869c7.74-4.502,15.479,4.502,23.219,0c0-12.505,0-25.01,0-37.516
			c-7.74,4.502-15.479-4.501-23.219,0C30.396,29.859,30.396,42.364,30.396,54.869z"/>
		<path fill="none" stroke="#0E2346" stroke-width="0.9394" stroke-linecap="round" stroke-linejoin="round" d="M30.396,54.869
			c7.74-4.502,15.479,4.502,23.219,0c0-12.505,0-25.01,0-37.516c-7.74,4.502-15.479-4.501-23.219,0
			C30.396,29.859,30.396,42.364,30.396,54.869z"/>
	</g>
	<g>
		<linearGradient id="SVGID_5_" gradientUnits="userSpaceOnUse" x1="9.0728" y1="34.2397" x2="30.3965" y2="34.2397">
			<stop  offset="0" style="stop-color:#FFFFFF"/>
			<stop  offset="0.112" style="stop-color:#F4F5FA"/>
			<stop  offset="0.2808" style="stop-color:#DDE3F1"/>
			<stop  offset="0.4856" style="stop-color:#BCC8E4"/>
			<stop  offset="0.7183" style="stop-color:#90A7D2"/>
			<stop  offset="0.9718" style="stop-color:#5C85BF"/>
			<stop  offset="1" style="stop-color:#5682BD"/>
		</linearGradient>
		<path fill="url(#SVGID_5_)" d="M30.396,52.998c-7.108-4.501-14.216,4.501-21.324,0c0-12.505,0-25.01,0-37.515
			c7.108,4.502,14.216-4.501,21.324,0C30.396,27.988,30.396,40.492,30.396,52.998z"/>
		<path fill="none" stroke="#0E2346" stroke-width="0.9002" stroke-linecap="round" stroke-linejoin="round" d="M30.396,52.998
			c-7.108-4.501-14.216,4.501-21.324,0c0-12.505,0-25.01,0-37.515c7.108,4.502,14.216-4.501,21.324,0
			C30.396,27.988,30.396,40.492,30.396,52.998z"/>
	</g>
	<g>
		<linearGradient id="SVGID_6_" gradientUnits="userSpaceOnUse" x1="51.7192" y1="34.2402" x2="30.3965" y2="34.2402">
			<stop  offset="0" style="stop-color:#FFFFFF"/>
			<stop  offset="0.1179" style="stop-color:#EFF1F8"/>
			<stop  offset="0.3313" style="stop-color:#CDD6EB"/>
			<stop  offset="0.6159" style="stop-color:#9CB0D7"/>
			<stop  offset="0.9574" style="stop-color:#5E87BF"/>
			<stop  offset="1" style="stop-color:#5682BD"/>
		</linearGradient>
		<path fill="url(#SVGID_6_)" d="M30.396,52.998c7.107-4.501,14.215,4.501,21.323,0c0-12.505,0-25.01,0-37.515
			c-7.107,4.502-14.215-4.501-21.323,0C30.396,27.988,30.396,40.492,30.396,52.998z"/>
		<path fill="none" stroke="#0E2346" stroke-width="0.9002" stroke-linecap="round" stroke-linejoin="round" d="M30.396,52.998
			c7.107-4.501,14.215,4.501,21.323,0c0-12.505,0-25.01,0-37.515c-7.107,4.502-14.215-4.501-21.323,0
			C30.396,27.988,30.396,40.492,30.396,52.998z"/>
	</g>
	<g>
		<path fill="#0E2346" d="M41.129,27.123h-5.73c-0.015-0.87-0.022-1.402-0.022-1.593c0-1.965,0.306-3.582,0.921-4.851
			c0.613-1.267,1.842-2.694,3.685-4.279c1.842-1.585,2.944-2.623,3.304-3.115c0.554-0.776,0.831-1.632,0.831-2.567
			c0-1.3-0.49-2.414-1.472-3.341c-0.981-0.927-2.303-1.39-3.966-1.39c-1.604,0-2.944,0.483-4.022,1.45
			c-1.078,0.967-1.82,2.441-2.225,4.422l-5.797-0.76c0.164-2.837,1.306-5.248,3.427-7.229c2.12-1.981,4.902-2.973,8.348-2.973
			c3.625,0,6.51,1.003,8.653,3.008c2.142,2.005,3.213,4.339,3.213,7.002c0,1.474-0.393,2.869-1.18,4.184
			c-0.787,1.316-2.469,3.107-5.044,5.374c-1.334,1.173-2.162,2.115-2.484,2.829C41.245,24.008,41.099,25.285,41.129,27.123z
			 M35.398,36.111v-6.682h6.315v6.682H35.398z"/>
	</g>
</g>
</svg>
