<?xml version="1.0" encoding="UTF-8" standalone="no"?>
<!-- Created with Inkscape (http://www.inkscape.org/) -->

<svg
   xmlns:dc="http://purl.org/dc/elements/1.1/"
   xmlns:cc="http://creativecommons.org/ns#"
   xmlns:rdf="http://www.w3.org/1999/02/22-rdf-syntax-ns#"
   xmlns:svg="http://www.w3.org/2000/svg"
   xmlns="http://www.w3.org/2000/svg"
   xmlns:sodipodi="http://sodipodi.sourceforge.net/DTD/sodipodi-0.dtd"
   xmlns:inkscape="http://www.inkscape.org/namespaces/inkscape"
   width="20"
   height="20"
   id="svg943"
   sodipodi:version="0.32"
   inkscape:version="0.46+devel"
   version="1.0"
   sodipodi:docname="external.svg"
   inkscape:output_extension="org.inkscape.output.svg.inkscape"
   inkscape:export-xdpi="90"
   inkscape:export-ydpi="90">
  <defs
     id="defs945">
    <inkscape:perspective
       sodipodi:type="inkscape:persp3d"
       inkscape:vp_x="0 : 526.18109 : 1"
       inkscape:vp_y="0 : 1000 : 0"
       inkscape:vp_z="744.09448 : 526.18109 : 1"
       inkscape:persp3d-origin="372.04724 : 350.78739 : 1"
       id="perspective951" />
    <inkscape:perspective
       id="perspective805"
       inkscape:persp3d-origin="0.5 : 0.33333333 : 1"
       inkscape:vp_z="1 : 0.5 : 1"
       inkscape:vp_y="0 : 1000 : 0"
       inkscape:vp_x="0 : 0.5 : 1"
       sodipodi:type="inkscape:persp3d" />
    <inkscape:perspective
       id="perspective833"
       inkscape:persp3d-origin="0.5 : 0.33333333 : 1"
       inkscape:vp_z="1 : 0.5 : 1"
       inkscape:vp_y="0 : 1000 : 0"
       inkscape:vp_x="0 : 0.5 : 1"
       sodipodi:type="inkscape:persp3d" />
  </defs>
  <sodipodi:namedview
     id="base"
     pagecolor="#8e8e8e"
     bordercolor="#666666"
     borderopacity="1.0"
     inkscape:pageopacity="0"
     inkscape:pageshadow="2"
     inkscape:zoom="4"
     inkscape:cx="-5.1664457"
     inkscape:cy="-8.5714288"
     inkscape:document-units="px"
     inkscape:current-layer="layer1"
     showgrid="false"
     inkscape:window-width="1074"
     inkscape:window-height="953"
     inkscape:window-x="0"
     inkscape:window-y="48" />
  <metadata
     id="metadata948">
    <rdf:RDF>
      <cc:Work
         rdf:about="">
        <dc:format>image/svg+xml</dc:format>
        <dc:type
           rdf:resource="http://purl.org/dc/dcmitype/StillImage" />
        <dc:title></dc:title>
      </cc:Work>
    </rdf:RDF>
  </metadata>
  <g
     inkscape:label="Layer 1"
     inkscape:groupmode="layer"
     id="layer1">
    <path
       style="font-size:medium;font-style:normal;font-variant:normal;font-weight:normal;font-stretch:normal;text-indent:0;text-align:start;text-decoration:none;line-height:normal;letter-spacing:normal;word-spacing:normal;text-transform:none;direction:ltr;block-progression:tb;writing-mode:lr-tb;text-anchor:start;color:#000000;fill:#ffffff;fill-opacity:1;stroke:none;stroke-width:2;marker:none;visibility:visible;display:inline;overflow:visible;enable-background:accumulate;font-family:Bitstream Vera Sans;-inkscape-font-specification:Bitstream Vera Sans"
       d="M 11.75 0 A 1.0098393 1.0098393 0 1 0 12.03125 2 L 14.375 2 C 12.770956 2.6116536 11.029142 3.3474602 9.4375 4.46875 C 6.6600446 6.4254288 4.4551295 9.6820111 4.625 15.03125 A 1.0004882 1.0004882 0 1 0 6.625 14.96875 C 6.4722818 10.15964 8.2248189 7.7626291 10.59375 6.09375 C 12.064735 5.0574613 13.792566 4.3776843 15.46875 3.75 L 14.25 5.25 A 1.0004882 1.0004882 0 1 0 15.8125 6.5 L 19.78125 1.625 A 1.0001 1.0001 0 0 0 19 0 L 12.03125 0 A 1.0001 1.0001 0 0 0 11.9375 0 A 1.001098 1.001098 0 0 0 11.84375 0 A 1.0043849 1.0043849 0 0 0 11.75 0 z M 0.65625 8.84375 A 0.82747138 0.82747138 0 0 0 0 9.65625 L 0 19.1875 A 0.82747138 0.82747138 0 0 0 0.8125 20 L 7.25 20 L 7.25 18.34375 L 1.65625 18.34375 L 1.65625 10.5 L 4.125 10.5 C 4.2836839 9.9139054 4.4653531 9.3681875 4.6875 8.84375 L 0.8125 8.84375 A 0.82747138 0.82747138 0 0 0 0.65625 8.84375 z M 9.125 8.84375 C 8.7763633 9.320248 8.4540786 9.8776052 8.21875 10.5 L 9.375 10.5 L 9.375 11.375 L 11 11.375 L 11 9.65625 A 0.82747138 0.82747138 0 0 0 10.1875 8.84375 L 9.125 8.84375 z "
       id="path19" />
    <text
       xml:space="preserve"
       style="font-size:13px;font-style:normal;font-variant:normal;font-weight:bold;font-stretch:normal;text-align:start;line-height:125%;writing-mode:lr-tb;text-anchor:start;fill:#ffffff;fill-opacity:1;stroke:none;font-family:DejaVu Sans;-inkscape-font-specification:DejaVu Sans Bold"
       x="7.4824219"
       y="20"
       id="text821"
       sodipodi:linespacing="125%"><tspan
         sodipodi:role="line"
         id="tspan823"
         x="7.4824219"
         y="20">m</tspan></text>
  </g>
</svg>
