<?xml version="1.0" encoding="UTF-8" standalone="no"?>
<!-- Created with Inkscape (http://www.inkscape.org/) -->

<svg
   xmlns:dc="http://purl.org/dc/elements/1.1/"
   xmlns:cc="http://creativecommons.org/ns#"
   xmlns:rdf="http://www.w3.org/1999/02/22-rdf-syntax-ns#"
   xmlns:svg="http://www.w3.org/2000/svg"
   xmlns="http://www.w3.org/2000/svg"
   xmlns:sodipodi="http://sodipodi.sourceforge.net/DTD/sodipodi-0.dtd"
   xmlns:inkscape="http://www.inkscape.org/namespaces/inkscape"
   width="60"
   height="60"
   id="svg2"
   sodipodi:version="0.32"
   inkscape:version="0.46+devel"
   version="1.0"
   sodipodi:docname="New document 1"
   inkscape:output_extension="org.inkscape.output.svg.inkscape">
  <defs
     id="defs4">
    <inkscape:perspective
       sodipodi:type="inkscape:persp3d"
       inkscape:vp_x="0 : 526.18109 : 1"
       inkscape:vp_y="0 : 1000 : 0"
       inkscape:vp_z="744.09448 : 526.18109 : 1"
       inkscape:persp3d-origin="372.04724 : 350.78739 : 1"
       id="perspective10" />
    <inkscape:perspective
       id="perspective932"
       inkscape:persp3d-origin="0.5 : 0.33333333 : 1"
       inkscape:vp_z="1 : 0.5 : 1"
       inkscape:vp_y="0 : 1000 : 0"
       inkscape:vp_x="0 : 0.5 : 1"
       sodipodi:type="inkscape:persp3d" />
  </defs>
  <sodipodi:namedview
     id="base"
     pagecolor="#ffffff"
     bordercolor="#666666"
     borderopacity="1.0"
     inkscape:pageopacity="0"
     inkscape:pageshadow="2"
     inkscape:zoom="4"
     inkscape:cx="9.2126115"
     inkscape:cy="62.857143"
     inkscape:document-units="px"
     inkscape:current-layer="layer1"
     showgrid="false"
     inkscape:window-width="1280"
     inkscape:window-height="953"
     inkscape:window-x="0"
     inkscape:window-y="25" />
  <metadata
     id="metadata7">
    <rdf:RDF>
      <cc:Work
         rdf:about="">
        <dc:format>image/svg+xml</dc:format>
        <dc:type
           rdf:resource="http://purl.org/dc/dcmitype/StillImage" />
        <dc:title></dc:title>
      </cc:Work>
    </rdf:RDF>
  </metadata>
  <g
     inkscape:label="Layer 1"
     inkscape:groupmode="layer"
     id="layer1">
    <path
       style="fill:#ffffff;fill-opacity:1;stroke:none"
       d="M 12.1875 0 C 5.4314702 0 0 5.4314702 0 12.1875 L 0 47.8125 C 0 54.56853 5.4314702 60 12.1875 60 L 47.8125 60 C 54.56853 60 60 54.56853 60 47.8125 L 60 12.1875 C 60 5.4314702 54.56853 0 47.8125 0 L 12.1875 0 z M 10.3125 8.90625 A 41.016 41.016 0 0 1 51.34375 49.9375 L 43.125 49.9375 A 32.8128 32.8128 0 0 0 10.3125 17.09375 L 10.3125 8.90625 z M 10.3125 22.71875 A 27.187749 27.187749 0 0 1 37.5 49.9375 L 29.53125 49.9375 A 19.218926 19.218926 0 0 0 10.3125 30.6875 L 10.3125 22.71875 z M 15.375 38.6875 C 15.564098 38.668296 15.743336 38.6875 15.9375 38.6875 C 19.04413 38.6875 21.5625 41.20587 21.5625 44.3125 C 21.5625 47.41913 19.04413 49.9375 15.9375 49.9375 C 12.83087 49.9375 10.3125 47.41913 10.3125 44.3125 C 10.3125 41.400034 12.538534 38.975559 15.375 38.6875 z "
       id="rect12" />
  </g>
</svg>
