<?xml version="1.0" encoding="utf-8"?>
<!-- Generator: Adobe Illustrator 14.0.0, SVG Export Plug-In . SVG Version: 6.00 Build 43363)  -->
<!DOCTYPE svg PUBLIC "-//W3C//DTD SVG 1.1//EN" "http://www.w3.org/Graphics/SVG/1.1/DTD/svg11.dtd">
<svg version="1.1" id="Layer_1" xmlns="http://www.w3.org/2000/svg" xmlns:xlink="http://www.w3.org/1999/xlink" x="0px" y="0px"
	 width="59px" height="59px" viewBox="0 0 59 59" enable-background="new 0 0 59 59" xml:space="preserve">
<g id="Layer_2">
</g>
<line fill="none" stroke="#0E2346" stroke-width="4.5977" x1="29.521" y1="0.82" x2="29.521" y2="6.088"/>
<line fill="none" stroke="#0E2346" stroke-width="4" x1="17.953" y1="42.07" x2="15.854" y2="58.07"/>
<line fill="none" stroke="#0E2346" stroke-width="4" x1="41.052" y1="42.07" x2="43.021" y2="58.07"/>
<line opacity="0.86" fill="none" stroke="#0E2346" stroke-width="3" x1="29.521" y1="42.07" x2="29.521" y2="52.094"/>
<g>
	<linearGradient id="SVGID_1_" gradientUnits="userSpaceOnUse" x1="29.7485" y1="-5.2124" x2="29.4345" y2="52.8863">
		<stop  offset="0" style="stop-color:#FFFFFF"/>
		<stop  offset="0.0501" style="stop-color:#EBEDF7"/>
		<stop  offset="0.2196" style="stop-color:#BAC6E3"/>
		<stop  offset="0.3883" style="stop-color:#94AAD4"/>
		<stop  offset="0.5528" style="stop-color:#7997C9"/>
		<stop  offset="0.7121" style="stop-color:#668BC2"/>
		<stop  offset="0.8639" style="stop-color:#5A84BE"/>
		<stop  offset="1" style="stop-color:#5682BD"/>
	</linearGradient>
	<polygon fill="url(#SVGID_1_)" points="45.226,44.565 13.732,44.565 18.432,5.293 40.908,5.293 	"/>
</g>
<linearGradient id="SVGID_2_" gradientUnits="userSpaceOnUse" x1="33.7588" y1="2.9146" x2="25.137" y2="47.2695">
	<stop  offset="0" style="stop-color:#FFFFFF"/>
	<stop  offset="0.4015" style="stop-color:#FBFCFE"/>
	<stop  offset="0.5461" style="stop-color:#F2F4FA"/>
	<stop  offset="0.6492" style="stop-color:#E6E9F5"/>
	<stop  offset="0.7326" style="stop-color:#D4DBEE"/>
	<stop  offset="0.804" style="stop-color:#BECAE5"/>
	<stop  offset="0.8672" style="stop-color:#A4B6DA"/>
	<stop  offset="0.9244" style="stop-color:#87A1CF"/>
	<stop  offset="0.9752" style="stop-color:#688CC3"/>
	<stop  offset="1" style="stop-color:#5682BD"/>
</linearGradient>
<path fill="url(#SVGID_2_)" stroke="#0E2346" stroke-width="0.5" d="M38.137,19.105c-2.222-2.713-4.373-5.498-6.474-8.322H19.979
	v28.293h19V20.097C38.699,19.766,38.413,19.441,38.137,19.105z"/>
<line fill="none" stroke="#0E2346" stroke-width="0.5" x1="32.75" y1="19.686" x2="38.979" y2="20.074"/>
<circle fill="none" stroke="#0E2346" stroke-width="0.5" cx="21.355" cy="12.407" r="0.5"/>
<circle fill="none" stroke="#0E2346" stroke-width="0.5" cx="21.083" cy="37.625" r="0.5"/>
<circle fill="none" stroke="#0E2346" stroke-width="0.5" cx="37.73" cy="37.532" r="0.5"/>
<line fill="none" stroke="#5682BD" stroke-width="0.5" x1="17.604" y1="44.07" x2="15.896" y2="58.07"/>
<line fill="none" stroke="#5682BD" x1="13.823" y1="58.18" x2="17.948" y2="58.18"/>
<line fill="none" stroke="#5682BD" stroke-width="0.5" x1="41.521" y1="44.07" x2="43.23" y2="58.07"/>
<line fill="none" stroke="#5682BD" x1="40.896" y1="58.07" x2="45.021" y2="58.07"/>
<line fill="none" stroke="#5682BD" x1="27.146" y1="1.125" x2="31.854" y2="1.125"/>
<line fill="none" stroke="#0E2346" stroke-width="0.75" x1="13.774" y1="44.277" x2="45.268" y2="44.277"/>
<path fill="none" stroke="#0E2346" stroke-width="0.5" d="M33,19.583c0-4.836-0.839-8.75-1.875-8.75"/>
</svg>
