<?xml version="1.0" encoding="utf-8"?>
<!-- Generator: Adobe Illustrator 15.0.0, SVG Export Plug-In . SVG Version: 6.00 Build 0)  -->
<!DOCTYPE svg PUBLIC "-//W3C//DTD SVG 1.1//EN" "http://www.w3.org/Graphics/SVG/1.1/DTD/svg11.dtd">
<svg version="1.1" id="Layer_1" xmlns="http://www.w3.org/2000/svg" xmlns:xlink="http://www.w3.org/1999/xlink" x="0px" y="0px"
	 width="60px" height="60px" viewBox="0 0 60 60" enable-background="new 0 0 60 60" xml:space="preserve">
<g>
	<g>
		<g>
			<g>
				<polygon fill="#0B2042" points="58.745,51.504 47.547,48.91 47.547,11.081 58.745,8.489 				"/>
			</g>
			<g>
				<polygon fill="#0B2142" points="42.271,51.725 32.975,49.08 47.547,48.91 58.745,51.504 				"/>
			</g>
			<g>
				<polygon fill="#0B2042" points="58.745,8.489 47.547,11.081 32.975,10.912 42.271,8.269 				"/>
			</g>
			<g>
				<polygon fill="#808080" points="42.271,51.725 32.975,49.08 32.975,10.912 42.271,8.269 				"/>
			</g>
			<g>
				<polygon fill="#B3B3B3" points="42.271,51.725 42.271,8.269 58.745,8.489 58.745,51.504 				"/>
				<g>
					<g>
						<rect x="14.017" y="47.428" fill="#0D2345" stroke="#0D2345" stroke-width="0.1863" width="13.087" height="2.885"/>
						<g id="XMLID_1_">
							<g>
								<polygon fill="#0D2345" points="30.652,52.531 10.466,52.531 14.017,50.312 27.103,50.312 								"/>
							</g>
							<g>
								<line fill="none" stroke="#0D2345" stroke-width="0.1863" x1="14.017" y1="50.312" x2="10.466" y2="52.531"/>
								<line fill="none" stroke="#0D2345" stroke-width="0.1863" x1="27.103" y1="50.312" x2="30.652" y2="52.531"/>
								<line fill="none" stroke="#0D2345" stroke-width="0.1863" x1="10.466" y1="52.531" x2="30.652" y2="52.531"/>
								<line fill="none" stroke="#0D2345" stroke-width="0.1863" x1="27.103" y1="50.312" x2="14.017" y2="50.312"/>
							</g>
						</g>
					</g>
					
						<linearGradient id="SVGID_1_" gradientUnits="userSpaceOnUse" x1="0.6367" y1="815.502" x2="39.9238" y2="815.502" gradientTransform="matrix(1 0 0 1 0.2803 -782.8906)">
						<stop  offset="0" style="stop-color:#0D2345"/>
						<stop  offset="0.0451" style="stop-color:#263352"/>
						<stop  offset="0.1708" style="stop-color:#61637C"/>
						<stop  offset="0.2827" style="stop-color:#9796A8"/>
						<stop  offset="0.3767" style="stop-color:#C7C6D0"/>
						<stop  offset="0.4489" style="stop-color:#EBEAED"/>
						<stop  offset="0.4909" style="stop-color:#FFFFFF"/>
						<stop  offset="0.5344" style="stop-color:#EBEAED"/>
						<stop  offset="0.609" style="stop-color:#C7C7D0"/>
						<stop  offset="0.7058" style="stop-color:#9897A9"/>
						<stop  offset="0.8211" style="stop-color:#62647D"/>
						<stop  offset="0.9504" style="stop-color:#283453"/>
						<stop  offset="1" style="stop-color:#0D2345"/>
					</linearGradient>
					<rect x="0.917" y="17.972" fill="url(#SVGID_1_)" stroke="#0D2345" stroke-width="0.9316" width="39.287" height="29.278"/>
					
						<linearGradient id="SVGID_2_" gradientUnits="userSpaceOnUse" x1="4.7158" y1="816.168" x2="36.7002" y2="816.168" gradientTransform="matrix(1 0 0 1 0.2803 -782.8906)">
						<stop  offset="0" style="stop-color:#8BA8D1"/>
						<stop  offset="0.2286" style="stop-color:#A9BDDC"/>
						<stop  offset="0.5751" style="stop-color:#D4DDED"/>
						<stop  offset="0.8438" style="stop-color:#F1F3F9"/>
						<stop  offset="1" style="stop-color:#FFFFFF"/>
					</linearGradient>
					<path fill="url(#SVGID_2_)" stroke="#8BA8D1" stroke-width="0.1833" d="M36.98,42.352c0,1.236-0.965,2.238-2.16,2.238H7.16
						c-1.195,0-2.164-1.002-2.164-2.238V24.2c0-1.234,0.968-2.236,2.164-2.236h27.66c1.195,0,2.16,1.001,2.16,2.236V42.352z"/>
					<g>
						<g>
							<path fill="#0D2345" d="M56.766,32.057c-3.693,2.188-8.287,2.188-11.979,0c0-5.913,0-11.829,0-17.743
								c3.992,0,7.984,0,11.979,0C56.766,20.228,56.766,26.144,56.766,32.057z"/>
							<path fill="none" stroke="#0D2345" stroke-width="0.5868" d="M56.766,32.057c-3.693,2.188-8.287,2.188-11.979,0
								c0-5.913,0-11.829,0-17.743c3.992,0,7.984,0,11.979,0C56.766,20.228,56.766,26.144,56.766,32.057z"/>
						</g>
						<rect x="45.782" y="27.127" fill="#0D2345" stroke="#8BA8D1" stroke-width="0.7453" width="9.983" height="1.834"/>
						<rect x="45.782" y="17.256" fill="#0D2345" stroke="#8BA8D1" stroke-width="0.7453" width="9.983" height="1.835"/>
						<line fill="none" stroke="#0D2345" stroke-width="0.559" x1="45.417" y1="44.125" x2="56.503" y2="44.125"/>
						<line fill="none" stroke="#0D2345" stroke-width="0.7453" x1="45.417" y1="45.678" x2="56.503" y2="45.678"/>
					</g>
				</g>
			</g>
		</g>
	</g>
</g>
</svg>
