<?xml version="1.0" encoding="utf-8"?>
<!-- Generator: Adobe Illustrator 14.0.0, SVG Export Plug-In . SVG Version: 6.00 Build 43363)  -->
<!DOCTYPE svg PUBLIC "-//W3C//DTD SVG 1.1//EN" "http://www.w3.org/Graphics/SVG/1.1/DTD/svg11.dtd">
<svg version="1.1" id="Layer_1" xmlns="http://www.w3.org/2000/svg" xmlns:xlink="http://www.w3.org/1999/xlink" x="0px" y="0px"
	 width="60px" height="60px" viewBox="0 0 283.465 283.465" enable-background="new 0 0 283.465 283.465"
	 xml:space="preserve">
<path fill="#FFFFFF" stroke="#0E2346" d="M79.191,37.989"/>
<path fill="none" stroke="#0E2346" d="M31.524,124.973"/>
<linearGradient id="SVGID_1_" gradientUnits="userSpaceOnUse" x1="240.8496" y1="60.1616" x2="264.509" y2="105.1609">
	<stop  offset="0" style="stop-color:#FFFFFF"/>
	<stop  offset="0.0759" style="stop-color:#BDBCC8"/>
	<stop  offset="0.1662" style="stop-color:#8C8B9F"/>
	<stop  offset="0.2616" style="stop-color:#686881"/>
	<stop  offset="0.3605" style="stop-color:#4C506C"/>
	<stop  offset="0.4638" style="stop-color:#373F5D"/>
	<stop  offset="0.5729" style="stop-color:#263252"/>
	<stop  offset="0.6905" style="stop-color:#19294B"/>
	<stop  offset="0.8227" style="stop-color:#102447"/>
	<stop  offset="1" style="stop-color:#0E2346"/>
</linearGradient>
<path fill="url(#SVGID_1_)" stroke="#FFFFFF" d="M265.221,99.223c0,2.179-1.767,3.945-3.945,3.945h-16.116
	c-2.18,0-3.945-1.766-3.945-3.945V68.145c0-2.179,1.766-3.945,3.945-3.945h16.116c2.179,0,3.945,1.767,3.945,3.945V99.223z"/>
<path fill="none" stroke="#0E2346" d="M31.524,121.841"/>
<g id="XMLID_1_">
	<g>
		<path fill="#0E2346" d="M71.268,124.975h-3.514H49.229H33.266c-1.886-1.155-2.394-2.185-1.712-3.111
			c9.186-12.47,235.183-5.233,245.266-4.906v5.407v1.448v1.162H247.1h-19.776h-2.255h-19.776h-115.5H71.268z"/>
		<path fill="#0E2346" d="M276.82,43.53v73.428c-10.083-0.327-236.081-7.564-245.266,4.906l-0.028-0.021
			c-64.368-44.188,251.905-69.239,243.555-81.417l0.034-0.049C276.152,41.088,276.82,42.236,276.82,43.53z"/>
		<linearGradient id="SVGID_2_" gradientUnits="userSpaceOnUse" x1="4.4082" y1="80.4043" x2="275.2441" y2="80.4043">
			<stop  offset="0.0061" style="stop-color:#0E2346"/>
			<stop  offset="0.1697" style="stop-color:#FFFFFF"/>
			<stop  offset="1" style="stop-color:#0E2346"/>
		</linearGradient>
		<path fill="url(#SVGID_2_)" d="M275.081,40.427c8.351,12.178-307.923,37.229-243.555,81.417l0.028,0.021
			c-0.682,0.926-0.174,1.956,1.712,3.111c-15.615,0-28.322-12.366-28.858-27.849c41.884-28.642,163.578-27.939,196.11-61.292
			c5.866,0.522,11.712,1.322,17.522,2.547c1.684,0.334,3.368,0.633,5.066,0.849c1.698,0.215,3.403,0.355,5.122,0.355
			c1.67,0.056,3.354,0.063,5.003,0.063c23.145,0,39.484,0,39.484,0c0.897,0,1.726,0.271,2.4,0.73L275.081,40.427z"/>
		<path fill="#0E2346" d="M247.1,124.975c0.021,0.229,0.028,0.459,0.028,0.696c0,5.379-4.439,9.742-9.916,9.742
			s-9.916-4.363-9.916-9.742c0-0.237,0.007-0.466,0.028-0.696H247.1z"/>
		<path fill="#0E2346" d="M225.068,124.975c0.021,0.229,0.028,0.459,0.028,0.696c0,5.379-4.439,9.742-9.916,9.742
			s-9.916-4.363-9.916-9.742c0-0.237,0.007-0.466,0.028-0.696H225.068z"/>
		<path fill="#0E2346" d="M196.733,35.535c1.259,0.09,2.526,0.188,3.785,0.299C167.986,69.187,46.292,68.484,4.408,97.126
			c-0.014-0.341-0.021-0.682-0.021-1.03c0,0,0.383-1.106,1.239-3.006C28.52,66.522,94.28,67.1,111.857,35.973
			c10.278-0.675,20.681-1.1,31.154-1.614c2.582-0.077,5.17-0.139,7.759-0.174c12.929-0.195,25.852,0.098,38.774,0.967
			C191.966,35.25,194.353,35.368,196.733,35.535z"/>
		<linearGradient id="SVGID_3_" gradientUnits="userSpaceOnUse" x1="51.4619" y1="49.5674" x2="59.8123" y2="66.7323">
			<stop  offset="0" style="stop-color:#FFFFFF"/>
			<stop  offset="0.0759" style="stop-color:#BDBCC8"/>
			<stop  offset="0.1662" style="stop-color:#8C8B9F"/>
			<stop  offset="0.2616" style="stop-color:#686881"/>
			<stop  offset="0.3605" style="stop-color:#4C506C"/>
			<stop  offset="0.4638" style="stop-color:#373F5D"/>
			<stop  offset="0.5729" style="stop-color:#263252"/>
			<stop  offset="0.6905" style="stop-color:#19294B"/>
			<stop  offset="0.8227" style="stop-color:#102447"/>
			<stop  offset="1" style="stop-color:#0E2346"/>
		</linearGradient>
		<path fill="url(#SVGID_3_)" d="M77.635,39.62c11.183-1.844,22.623-2.902,34.223-3.646C94.28,67.1,28.52,66.522,5.626,93.09
			C10.337,82.548,29.453,47.483,77.635,39.62z"/>
		<path fill="#0E2346" d="M89.792,124.975c0.417,1.079,0.654,2.248,0.654,3.479c0,5.379-4.44,9.742-9.917,9.742
			s-9.916-4.363-9.916-9.742c0-1.225,0.229-2.4,0.654-3.479H89.792z"/>
		<path fill="#0E2346" d="M67.753,124.975c0.424,1.079,0.654,2.254,0.654,3.479c0,5.379-4.439,9.742-9.916,9.742
			s-9.916-4.363-9.916-9.742c0-1.225,0.229-2.4,0.654-3.479H67.753z"/>
	</g>
	<g>
		<path fill="none" stroke="#0E2346" d="M4.387,97.14c0.007-0.007,0.014-0.007,0.021-0.014
			c41.884-28.642,163.578-27.939,196.11-61.292c0.035-0.035,0.07-0.07,0.104-0.104"/>
		<path fill="none" stroke="#0E2346" d="M275.081,40.427c8.351,12.178-307.923,37.229-243.555,81.417"/>
		<path fill="none" stroke="#0E2346" stroke-linecap="round" stroke-linejoin="round" d="M111.899,35.904
			c-0.014,0.021-0.028,0.048-0.042,0.069C94.28,67.1,28.52,66.522,5.626,93.09c-0.069,0.076-0.132,0.146-0.195,0.223"/>
		<polyline fill="none" stroke="#0E2346" stroke-linecap="round" stroke-linejoin="round" points="31.526,124.975 33.266,124.975 
			49.229,124.975 67.753,124.975 71.268,124.975 89.792,124.975 205.292,124.975 225.068,124.975 227.323,124.975 247.1,124.975 
			276.82,124.975 		"/>
		
			<line fill="none" stroke="#0E2346" stroke-linecap="round" stroke-linejoin="round" x1="276.82" y1="123.813" x2="276.82" y2="124.975"/>
		<path fill="none" stroke="#0E2346" stroke-linecap="round" stroke-linejoin="round" d="M277.168,116.972
			c0,0-0.118-0.007-0.348-0.014c-10.083-0.327-236.081-7.564-245.266,4.906c-0.682,0.926-0.174,1.956,1.712,3.111
			c-15.615,0-28.322-12.366-28.858-27.849c-0.014-0.341-0.021-0.682-0.021-1.03c0,0,0.383-1.106,1.239-3.006
			c4.711-10.542,23.827-45.607,72.009-53.471c11.183-1.844,22.623-2.902,34.223-3.646c10.278-0.675,20.681-1.1,31.154-1.614
			c2.582-0.077,5.17-0.139,7.759-0.174c12.929-0.195,25.852,0.098,38.774,0.967c2.421,0.098,4.809,0.216,7.188,0.383
			c1.259,0.09,2.526,0.188,3.785,0.299c5.866,0.522,11.712,1.322,17.522,2.547c1.684,0.334,3.368,0.633,5.066,0.849
			c1.698,0.215,3.403,0.355,5.122,0.355c1.67,0.056,3.354,0.063,5.003,0.063c23.145,0,39.484,0,39.484,0
			c0.897,0,1.726,0.271,2.4,0.73c1.037,0.71,1.705,1.858,1.705,3.152v73.428v5.407v1.448"/>
		<path fill="none" stroke="#0E2346" stroke-linecap="round" stroke-linejoin="round" d="M224.888,123.694
			c0.09,0.417,0.153,0.842,0.181,1.281c0.021,0.229,0.028,0.459,0.028,0.696c0,5.379-4.439,9.742-9.916,9.742
			s-9.916-4.363-9.916-9.742c0-0.237,0.007-0.466,0.028-0.696c0.028-0.425,0.083-0.849,0.167-1.26"/>
		<path fill="none" stroke="#0E2346" stroke-linecap="round" stroke-linejoin="round" d="M246.926,123.708
			c0.083,0.411,0.146,0.835,0.174,1.267c0.021,0.229,0.028,0.459,0.028,0.696c0,5.379-4.439,9.742-9.916,9.742
			s-9.916-4.363-9.916-9.742c0-0.237,0.007-0.466,0.028-0.696c0.028-0.425,0.09-0.849,0.174-1.26"/>
		<path fill="none" stroke="#0E2346" stroke-linecap="round" stroke-linejoin="round" d="M67.531,124.446
			c0.076,0.174,0.153,0.348,0.223,0.529c0.424,1.079,0.654,2.254,0.654,3.479c0,5.379-4.439,9.742-9.916,9.742
			s-9.916-4.363-9.916-9.742c0-1.225,0.229-2.4,0.654-3.479c0.063-0.167,0.132-0.334,0.209-0.501"/>
		<path fill="none" stroke="#0E2346" stroke-linecap="round" stroke-linejoin="round" d="M89.597,124.516
			c0.069,0.153,0.132,0.306,0.195,0.459c0.417,1.079,0.654,2.248,0.654,3.479c0,5.379-4.44,9.742-9.917,9.742
			s-9.916-4.363-9.916-9.742c0-1.225,0.229-2.4,0.654-3.479c0.063-0.167,0.132-0.334,0.208-0.501"/>
	</g>
</g>
<linearGradient id="SVGID_4_" gradientUnits="userSpaceOnUse" x1="228.8032" y1="63.6201" x2="228.8032" y2="85.192">
	<stop  offset="0" style="stop-color:#FFFFFF"/>
	<stop  offset="1" style="stop-color:#0E2346"/>
</linearGradient>
<path fill="url(#SVGID_4_)" stroke="#FFFFFF" stroke-width="0.5" d="M220.685,69.189c0-2.179,1.767-3.945,3.945-3.945h8.347
	c2.18,0,3.945,1.766,3.945,3.945v15.537c0,2.179-1.766,3.945-3.945,3.945h-8.347c-2.179,0-3.945-1.766-3.945-3.945V69.189z"/>
<linearGradient id="SVGID_5_" gradientUnits="userSpaceOnUse" x1="209.0869" y1="63.6201" x2="209.0869" y2="85.192">
	<stop  offset="0" style="stop-color:#FFFFFF"/>
	<stop  offset="1" style="stop-color:#0E2346"/>
</linearGradient>
<path fill="url(#SVGID_5_)" stroke="#FFFFFF" stroke-width="0.5" d="M200.969,68.957c0-2.179,1.766-3.945,3.944-3.945h8.348
	c2.179,0,3.944,1.766,3.944,3.945v15.537c0,2.179-1.766,3.945-3.944,3.945h-8.348c-2.179,0-3.944-1.766-3.944-3.945V68.957z"/>
<linearGradient id="SVGID_6_" gradientUnits="userSpaceOnUse" x1="189.6025" y1="63.6201" x2="189.6025" y2="85.1924">
	<stop  offset="0" style="stop-color:#FFFFFF"/>
	<stop  offset="1" style="stop-color:#0E2346"/>
</linearGradient>
<path fill="url(#SVGID_6_)" stroke="#FFFFFF" stroke-width="0.5" d="M181.484,68.725c0-2.179,1.766-3.945,3.945-3.945h8.347
	c2.179,0,3.944,1.767,3.944,3.945v15.538c0,2.179-1.766,3.945-3.944,3.945h-8.347c-2.18,0-3.945-1.767-3.945-3.945V68.725z"/>
<linearGradient id="SVGID_7_" gradientUnits="userSpaceOnUse" x1="170.582" y1="63.6201" x2="170.582" y2="85.1924">
	<stop  offset="0" style="stop-color:#FFFFFF"/>
	<stop  offset="1" style="stop-color:#0E2346"/>
</linearGradient>
<path fill="url(#SVGID_7_)" stroke="#FFFFFF" stroke-width="0.5" d="M162.464,68.725c0-2.179,1.765-3.945,3.944-3.945h8.348
	c2.178,0,3.944,1.767,3.944,3.945v15.538c0,2.179-1.767,3.945-3.944,3.945h-8.348c-2.18,0-3.944-1.766-3.944-3.945V68.725z"/>
<linearGradient id="SVGID_8_" gradientUnits="userSpaceOnUse" x1="151.3296" y1="63.6201" x2="151.3296" y2="85.1924">
	<stop  offset="0" style="stop-color:#FFFFFF"/>
	<stop  offset="1" style="stop-color:#0E2346"/>
</linearGradient>
<path fill="url(#SVGID_8_)" stroke="#FFFFFF" stroke-width="0.5" d="M143.211,68.725c0-2.179,1.767-3.945,3.945-3.945h8.347
	c2.179,0,3.945,1.767,3.945,3.945v15.538c0,2.179-1.767,3.945-3.945,3.945h-8.347c-2.179,0-3.945-1.766-3.945-3.945V68.725z"/>
<linearGradient id="SVGID_9_" gradientUnits="userSpaceOnUse" x1="132.0767" y1="63.6201" x2="132.0767" y2="85.1924">
	<stop  offset="0" style="stop-color:#FFFFFF"/>
	<stop  offset="1" style="stop-color:#0E2346"/>
</linearGradient>
<path fill="url(#SVGID_9_)" stroke="#FFFFFF" stroke-width="0.5" d="M123.958,68.725c0-2.179,1.767-3.945,3.945-3.945h8.347
	c2.18,0,3.945,1.767,3.945,3.945v15.538c0,2.179-1.766,3.945-3.945,3.945h-8.347c-2.179,0-3.945-1.766-3.945-3.945V68.725z"/>
<g>
	<linearGradient id="SVGID_10_" gradientUnits="userSpaceOnUse" x1="9.4111" y1="193.3203" x2="274.8848" y2="193.3203">
		<stop  offset="0.0121" style="stop-color:#5682BD"/>
		<stop  offset="0.0598" style="stop-color:#6B8EC4"/>
		<stop  offset="0.1982" style="stop-color:#A4B6DA"/>
		<stop  offset="0.3148" style="stop-color:#D1D9ED"/>
		<stop  offset="0.4038" style="stop-color:#F0F2F9"/>
		<stop  offset="0.4545" style="stop-color:#FFFFFF"/>
		<stop  offset="0.5155" style="stop-color:#F3F5FA"/>
		<stop  offset="0.6084" style="stop-color:#DDE2F1"/>
		<stop  offset="0.7218" style="stop-color:#BAC7E3"/>
		<stop  offset="0.8514" style="stop-color:#8EA6D1"/>
		<stop  offset="0.9929" style="stop-color:#5984BE"/>
		<stop  offset="1" style="stop-color:#5682BD"/>
	</linearGradient>
	<path fill="url(#SVGID_10_)" stroke="#0E2346" stroke-width="2" d="M274.885,201.367c-0.103-0.255-0.179-0.54-0.223-0.859
		c-1.496-10.747-4.42-21.147-7.654-31.463c-2.711-6.276-5.62-12.457-8.704-18.52H13.6c-2.313,0-4.188,1.766-4.188,3.944v55.796
		c7.461,8.845,16.13,16.758,23.282,25.851h242.191V201.367z"/>
	<linearGradient id="SVGID_11_" gradientUnits="userSpaceOnUse" x1="118.1362" y1="156.189" x2="116.3966" y2="196.2018">
		<stop  offset="0.0061" style="stop-color:#FFFFFF"/>
		<stop  offset="1" style="stop-color:#0E2346"/>
	</linearGradient>
	<path fill="url(#SVGID_11_)" stroke="#0E2346" d="M218.289,152.611H16.254c-2.05,0-3.711,1.767-3.711,3.945v32.296
		c5.818,3.445,11.421,7.295,17.36,10.509c0.128,0.069,0.245,0.144,0.356,0.221h188.029c2.049,0,3.71-1.767,3.71-3.945v-39.081
		C221.999,154.378,220.338,152.611,218.289,152.611z"/>
	<line fill="none" stroke="#0E2346" stroke-width="3" x1="37.246" y1="152.611" x2="37.246" y2="199.235"/>
	<line fill="none" stroke="#0E2346" stroke-width="3" x1="64.037" y1="152.264" x2="64.037" y2="199.583"/>
	<line fill="none" stroke="#0E2346" stroke-width="3" x1="104.05" y1="152.611" x2="104.05" y2="199.235"/>
	<line fill="none" stroke="#0E2346" stroke-width="3" x1="129.449" y1="152.959" x2="129.449" y2="199.583"/>
	<line fill="none" stroke="#0E2346" stroke-width="3" x1="157.631" y1="152.264" x2="157.631" y2="199.583"/>
	<line fill="none" stroke="#0E2346" stroke-width="3" x1="63.689" y1="166.181" x2="104.05" y2="166.181"/>
	<line fill="none" stroke="#0E2346" stroke-width="3" x1="197.645" y1="152.611" x2="197.645" y2="199.235"/>
	<line fill="none" stroke="#0E2346" stroke-width="3" x1="157.283" y1="166.181" x2="197.645" y2="166.181"/>
	<linearGradient id="SVGID_12_" gradientUnits="userSpaceOnUse" x1="236.6528" y1="154.9941" x2="237.0007" y2="224.2336">
		<stop  offset="0" style="stop-color:#FFFFFF"/>
		<stop  offset="0.089" style="stop-color:#D2D1D9"/>
		<stop  offset="0.3462" style="stop-color:#808096"/>
		<stop  offset="0.575" style="stop-color:#4E526E"/>
		<stop  offset="0.7669" style="stop-color:#2D3756"/>
		<stop  offset="0.9145" style="stop-color:#17284A"/>
		<stop  offset="1" style="stop-color:#0E2346"/>
	</linearGradient>
	<rect x="218.289" y="152.611" fill="url(#SVGID_12_)" stroke="#0E2346" width="37.111" height="81.069"/>
	<line fill="none" stroke="#0E2346" stroke-width="3" x1="236.96" y1="152.611" x2="236.96" y2="233.333"/>
	<linearGradient id="SVGID_13_" gradientUnits="userSpaceOnUse" x1="259.3799" y1="158.1602" x2="264.5989" y2="201.6516">
		<stop  offset="0" style="stop-color:#FFFFFF"/>
		<stop  offset="1" style="stop-color:#0E2346"/>
	</linearGradient>
	<path fill="url(#SVGID_13_)" stroke="#0E2346" d="M265.231,171.56c-1.993-6.013-3.488-12.42-6.993-17.792
		c-0.348-0.534-0.719-1.052-1.098-1.562v51.552h15.421C270.792,192.878,268.704,182.033,265.231,171.56z"/>
	<path fill="none" stroke="#0E2346" d="M39.685,236.116c0.186-10.6,8.837-19.136,19.481-19.136s19.296,8.536,19.481,19.136"/>
	<path fill="none" stroke="#0E2346" d="M174.335,235.768c0.187-10.6,8.837-19.136,19.481-19.136s19.296,8.536,19.482,19.136"/>
	<circle fill="#0E2346" stroke="#0E2346" cx="58.47" cy="236.116" r="13.222"/>
	<circle fill="#0E2346" stroke="#0E2346" cx="194.86" cy="235.768" r="13.222"/>
	<line fill="none" stroke="#0E2346" x1="218.52" y1="166.181" x2="263.752" y2="166.181"/>
	<ellipse fill="#0E2346" stroke="#0E2346" cx="265.143" cy="171.922" rx="4.176" ry="10.264"/>
	<rect x="218.289" y="152.611" fill="#0E2346" stroke="#0E2346" stroke-width="0.5" width="36.764" height="13.222"/>
	<path fill="none" stroke="#0E2346" stroke-width="5" d="M261.663,166.297c0-2.692-2.074-4.871-4.639-4.871"/>
	<circle fill="none" stroke="#FFFFFF" cx="58.818" cy="236.116" r="7.655"/>
	<circle fill="none" stroke="#FFFFFF" cx="194.861" cy="235.768" r="7.655"/>
</g>
<line fill="none" stroke="#FFFFFF" x1="47.482" y1="125.918" x2="279.482" y2="125.918"/>
<rect x="275.774" y="44.426" fill="#0E2346" stroke="#0E2346" width="3.305" height="80.547"/>
</svg>
