<?xml version="1.0" encoding="utf-8"?>
<!-- Generator: Adobe Illustrator 14.0.0, SVG Export Plug-In . SVG Version: 6.00 Build 43363)  -->
<!DOCTYPE svg PUBLIC "-//W3C//DTD SVG 1.1//EN" "http://www.w3.org/Graphics/SVG/1.1/DTD/svg11.dtd">
<svg version="1.1" id="clipping_x3F_" xmlns="http://www.w3.org/2000/svg" xmlns:xlink="http://www.w3.org/1999/xlink" x="0px"
	 y="0px" width="60.5px" height="60.5px" viewBox="0 0 60.5 60.5" enable-background="new 0 0 60.5 60.5" xml:space="preserve">
<defs>
	<path id="SVGID_1_" d="M61.944-7.602c2.877,0,5.229,2.258,5.229,4.877v62.29c0,2.899-2.352,5.157-5.229,5.157H-2.981
		c-2.877,0-5.229-2.258-5.229-5.017V-2.585c0-2.759,2.352-5.017,5.229-5.017H61.944z"/>
</defs>
<clipPath id="SVGID_2_">
	<use xlink:href="#SVGID_1_"  overflow="visible"/>
</clipPath>
<linearGradient id="SVGID_3_" gradientUnits="userSpaceOnUse" x1="30.7373" y1="59.3672" x2="30.0366" y2="39.3013">
	<stop  offset="0" style="stop-color:#FFFFFF"/>
	<stop  offset="0.3361" style="stop-color:#FBFCFD"/>
	<stop  offset="0.4806" style="stop-color:#F2F3F7"/>
	<stop  offset="0.5883" style="stop-color:#E5E8EF"/>
	<stop  offset="0.6779" style="stop-color:#D4D9E5"/>
	<stop  offset="0.7561" style="stop-color:#BEC8D9"/>
	<stop  offset="0.8264" style="stop-color:#A4B3CC"/>
	<stop  offset="0.8909" style="stop-color:#879EBD"/>
	<stop  offset="0.9489" style="stop-color:#6888AE"/>
	<stop  offset="1" style="stop-color:#4175A0"/>
</linearGradient>
<rect x="22.65" y="39.559" clip-path="url(#SVGID_2_)" fill="url(#SVGID_3_)" stroke="#0E2346" stroke-width="1.2847" width="15.473" height="19.55"/>
<polygon clip-path="url(#SVGID_2_)" fill="none" stroke="#0E2346" stroke-width="1.0871" points="25.48,47.247 23.234,39.282 
	31.513,39.284 "/>
<polygon clip-path="url(#SVGID_2_)" fill="none" stroke="#0E2346" stroke-width="1.0871" points="34.869,47.247 37.117,39.282 
	28.84,39.284 "/>
<line clip-path="url(#SVGID_2_)" fill="none" stroke="#0E2346" stroke-width="1.1497" x1="30.315" y1="40.357" x2="30.315" y2="59.107"/>
<linearGradient id="SVGID_4_" gradientUnits="userSpaceOnUse" x1="15.8496" y1="59.7939" x2="21.7547" y2="39.2005">
	<stop  offset="0" style="stop-color:#FFFFFF"/>
	<stop  offset="0.2327" style="stop-color:#C1CADB"/>
	<stop  offset="0.4986" style="stop-color:#8BA0BF"/>
	<stop  offset="0.7246" style="stop-color:#6687AD"/>
	<stop  offset="0.8987" style="stop-color:#4C7AA3"/>
	<stop  offset="1" style="stop-color:#4175A0"/>
</linearGradient>
<path clip-path="url(#SVGID_2_)" fill="url(#SVGID_4_)" stroke="#0E2346" stroke-width="1.2906" stroke-linecap="round" stroke-linejoin="round" d="
	M22.513,39.418c-10.01,1.821-12.026,11.504-8.997,19.707h8.997V39.418z"/>
<linearGradient id="SVGID_5_" gradientUnits="userSpaceOnUse" x1="39.541" y1="59.5552" x2="44.8174" y2="41.1541">
	<stop  offset="0" style="stop-color:#FFFFFF"/>
	<stop  offset="0.2327" style="stop-color:#C1CADB"/>
	<stop  offset="0.4986" style="stop-color:#8BA0BF"/>
	<stop  offset="0.7246" style="stop-color:#6687AD"/>
	<stop  offset="0.8987" style="stop-color:#4C7AA3"/>
	<stop  offset="1" style="stop-color:#4175A0"/>
</linearGradient>
<path clip-path="url(#SVGID_2_)" fill="url(#SVGID_5_)" stroke="#0E2346" stroke-width="1.2906" stroke-linecap="round" stroke-linejoin="round" d="
	M37.984,39.275c10.009,1.833,12.03,11.581,9,19.833h-9V39.275z"/>
<radialGradient id="SVGID_6_" cx="30.3145" cy="21.248" r="17.1978" gradientUnits="userSpaceOnUse">
	<stop  offset="0" style="stop-color:#FFFFFF"/>
	<stop  offset="1" style="stop-color:#4175A0"/>
</radialGradient>
<ellipse clip-path="url(#SVGID_2_)" fill="url(#SVGID_6_)" stroke="#0E2346" stroke-width="1.4494" cx="30.315" cy="21.249" rx="15.045" ry="19.108"/>
<path clip-path="url(#SVGID_2_)" fill="#0E2346" stroke="#0E2346" stroke-width="1.5684" d="M15.687,27.148
	c-0.451-1.449-0.031-4.249,0.102-5.851c0.171-2.019,0.788-3.846,1.773-5.504c1.477-2.494,4.021-6.442,6.574-7.317
	c1.28-0.441,2.729-0.698,3.999-1.224c-0.773,0.985-1.547,1.742-2.484,2.476c1.592-0.173,3.034-1.456,4.595-1.604
	c-0.153,2.415-2.459,3.138-3.855,4.465c2.874,0.018,6.641-0.499,8.626-3.199c0.283,1.533-0.359,2.479-0.834,3.799
	c1.229-0.405,2.255-1.33,2.649-2.833c1.222,1.047,1.251,1.897,1.956,3.336c0.322-0.621,0.456-1.856,0.47-2.59
	c2.437,1.677,3.432,3.952,4.652,6.958c0.532,1.313,0.65,2.689,0.947,4.081c0.17,0.793,0.159,3.646,0.508,4.025
	c0.925-0.998,0.157-4.293,0.1-5.616c-0.074-1.809-0.055-3.736-0.208-5.602c-0.298-3.583-2.633-6.827-4.823-9.216
	c0.976,0.161,1.854,0.765,2.669,1.386c-0.971-1.807-2.646-2.541-4.188-3.242c-0.766-0.349-1.535-0.961-2.317-1.226
	c-0.826-0.281-1.779-0.087-2.443-0.77c0.229-0.243,0.505-0.532,0.82-0.632c-5.317,0.105-10.312,1.084-15.132,3.624
	c0.475-0.012,0.957-0.018,1.429,0.012C21.06,5.921,19.107,6.714,18.4,7.45c-0.889,0.929-1.686,2.222-2.279,3.372
	c0.394-0.207,0.819-0.459,1.244-0.584c-0.584,1.234-1.235,2.143-1.596,3.565c-0.344,1.339-0.534,2.744-0.716,4.138
	c-0.363,2.853-0.117,5.602,0.211,8.212"/>
</svg>
