<?xml version="1.0" encoding="utf-8"?>
<!-- Generator: Adobe Illustrator 14.0.0, SVG Export Plug-In . SVG Version: 6.00 Build 43363)  -->
<!DOCTYPE svg PUBLIC "-//W3C//DTD SVG 1.1//EN" "http://www.w3.org/Graphics/SVG/1.1/DTD/svg11.dtd">
<svg version="1.1" id="Layer_1" xmlns="http://www.w3.org/2000/svg" xmlns:xlink="http://www.w3.org/1999/xlink" x="0px" y="0px"
	 width="60px" height="60px" viewBox="0 0 60 60" enable-background="new 0 0 60 60" xml:space="preserve">
<g>
	<linearGradient id="SVGID_1_" gradientUnits="userSpaceOnUse" x1="7.3467" y1="48.3433" x2="52.6527" y2="11.6552">
		<stop  offset="0" style="stop-color:#5682BD"/>
		<stop  offset="0.007" style="stop-color:#5883BD"/>
		<stop  offset="0.2598" style="stop-color:#AABBDD"/>
		<stop  offset="0.4367" style="stop-color:#E4E7F4"/>
		<stop  offset="0.5212" style="stop-color:#FFFFFF"/>
		<stop  offset="0.6064" style="stop-color:#D5DCEE"/>
		<stop  offset="0.7934" style="stop-color:#8EA6D2"/>
		<stop  offset="0.9272" style="stop-color:#668BC2"/>
		<stop  offset="0.9939" style="stop-color:#5682BD"/>
	</linearGradient>
	<ellipse fill="url(#SVGID_1_)" stroke="#0E2346" stroke-width="0.2471" cx="30" cy="30" rx="28.892" ry="29.536"/>
	<linearGradient id="SVGID_2_" gradientUnits="userSpaceOnUse" x1="5.2266" y1="29.6377" x2="55.3486" y2="29.6377">
		<stop  offset="0" style="stop-color:#5682BD"/>
		<stop  offset="0.007" style="stop-color:#5883BD"/>
		<stop  offset="0.2598" style="stop-color:#AABBDD"/>
		<stop  offset="0.4367" style="stop-color:#E4E7F4"/>
		<stop  offset="0.5212" style="stop-color:#FFFFFF"/>
		<stop  offset="0.6064" style="stop-color:#D5DCEE"/>
		<stop  offset="0.7934" style="stop-color:#8EA6D2"/>
		<stop  offset="0.9272" style="stop-color:#668BC2"/>
		<stop  offset="0.9939" style="stop-color:#5682BD"/>
	</linearGradient>
	
		<ellipse opacity="0.88" fill="url(#SVGID_2_)" stroke="#0E2346" stroke-width="0.0982" cx="30.288" cy="29.638" rx="25.061" ry="25.446"/>
	<line fill="none" stroke="#0E2346" stroke-width="0.0982" x1="30.287" y1="29.638" x2="30.287" y2="4.785"/>
	<line fill="none" stroke="#0E2346" stroke-width="0.0982" x1="30.287" y1="29.638" x2="33.558" y2="5"/>
	<line fill="none" stroke="#0E2346" stroke-width="0.0982" x1="30.287" y1="29.638" x2="36.772" y2="5.637"/>
	<line fill="none" stroke="#0E2346" stroke-width="0.0982" x1="30.287" y1="29.638" x2="39.875" y2="6.689"/>
	<line fill="none" stroke="#0E2346" stroke-width="0.0982" x1="30.287" y1="29.638" x2="42.812" y2="8.137"/>
	<line fill="none" stroke="#0E2346" stroke-width="0.0982" x1="30.287" y1="29.638" x2="45.534" y2="9.955"/>
	<line fill="none" stroke="#0E2346" stroke-width="0.0982" x1="30.287" y1="29.638" x2="47.992" y2="12.111"/>
	<line fill="none" stroke="#0E2346" stroke-width="0.0982" x1="30.287" y1="29.638" x2="50.146" y2="14.569"/>
	<line fill="none" stroke="#0E2346" stroke-width="0.0982" x1="30.287" y1="29.638" x2="51.958" y2="17.288"/>
	<line fill="none" stroke="#0E2346" stroke-width="0.0982" x1="30.287" y1="29.638" x2="53.396" y2="20.219"/>
	<line fill="none" stroke="#0E2346" stroke-width="0.0982" x1="30.287" y1="29.638" x2="54.437" y2="23.312"/>
	<line fill="none" stroke="#0E2346" stroke-width="0.0982" x1="30.287" y1="29.638" x2="55.062" y2="26.515"/>
	<line fill="none" stroke="#0E2346" stroke-width="0.0982" x1="30.287" y1="29.638" x2="55.259" y2="29.771"/>
	<line fill="none" stroke="#0E2346" stroke-width="0.0982" x1="30.287" y1="29.638" x2="55.026" y2="33.024"/>
	<line fill="none" stroke="#0E2346" stroke-width="0.0982" x1="30.287" y1="29.638" x2="54.368" y2="36.22"/>
	<line fill="none" stroke="#0E2346" stroke-width="0.0982" x1="30.287" y1="29.638" x2="53.294" y2="39.302"/>
	<line fill="none" stroke="#0E2346" stroke-width="0.0982" x1="30.287" y1="29.638" x2="51.824" y2="42.217"/>
	<line fill="none" stroke="#0E2346" stroke-width="0.0982" x1="30.287" y1="29.638" x2="49.984" y2="44.916"/>
	<line fill="none" stroke="#0E2346" stroke-width="0.0982" x1="30.287" y1="29.638" x2="47.803" y2="47.352"/>
	<line fill="none" stroke="#0E2346" stroke-width="0.0982" x1="30.287" y1="29.638" x2="45.321" y2="49.482"/>
	<line fill="none" stroke="#0E2346" stroke-width="0.0982" x1="30.287" y1="29.638" x2="42.579" y2="51.271"/>
	<line fill="none" stroke="#0E2346" stroke-width="0.0982" x1="30.287" y1="29.638" x2="39.626" y2="52.688"/>
	<line fill="none" stroke="#0E2346" stroke-width="0.0982" x1="30.287" y1="29.638" x2="36.512" y2="53.706"/>
	<line fill="none" stroke="#0E2346" stroke-width="0.0982" x1="30.287" y1="29.638" x2="33.292" y2="54.31"/>
	<line fill="none" stroke="#0E2346" stroke-width="0.0982" x1="30.287" y1="29.638" x2="30.02" y2="54.489"/>
	<line fill="none" stroke="#0E2346" stroke-width="0.0982" x1="30.287" y1="29.638" x2="26.75" y2="54.239"/>
	<line fill="none" stroke="#0E2346" stroke-width="0.0982" x1="30.287" y1="29.638" x2="23.544" y2="53.567"/>
	<line fill="none" stroke="#0E2346" stroke-width="0.0982" x1="30.287" y1="29.638" x2="20.453" y2="52.482"/>
	<line fill="none" stroke="#0E2346" stroke-width="0.0982" x1="30.287" y1="29.638" x2="17.532" y2="51.003"/>
	<line fill="none" stroke="#0E2346" stroke-width="0.0982" x1="30.287" y1="29.638" x2="14.829" y2="49.156"/>
	<line fill="none" stroke="#0E2346" stroke-width="0.0982" x1="30.287" y1="29.638" x2="12.394" y2="46.974"/>
	<line fill="none" stroke="#0E2346" stroke-width="0.0982" x1="30.287" y1="29.638" x2="10.266" y2="44.492"/>
	<line fill="none" stroke="#0E2346" stroke-width="0.0982" x1="30.287" y1="29.638" x2="8.484" y2="41.755"/>
	<line fill="none" stroke="#0E2346" stroke-width="0.0982" x1="30.287" y1="29.638" x2="7.078" y2="38.808"/>
	<line fill="none" stroke="#0E2346" stroke-width="0.0982" x1="30.287" y1="29.638" x2="6.071" y2="35.704"/>
	<line fill="none" stroke="#0E2346" stroke-width="0.0982" x1="30.287" y1="29.638" x2="5.481" y2="32.495"/>
	<line fill="none" stroke="#0E2346" stroke-width="0.0982" x1="30.287" y1="29.638" x2="5.319" y2="29.237"/>
	<line fill="none" stroke="#0E2346" stroke-width="0.0982" x1="30.287" y1="29.638" x2="5.586" y2="25.986"/>
	<line fill="none" stroke="#0E2346" stroke-width="0.0982" x1="30.287" y1="29.638" x2="6.28" y2="22.798"/>
	<line fill="none" stroke="#0E2346" stroke-width="0.0982" x1="30.287" y1="29.638" x2="7.387" y2="19.728"/>
	<line fill="none" stroke="#0E2346" stroke-width="0.0982" x1="30.287" y1="29.638" x2="8.888" y2="16.828"/>
	<line fill="none" stroke="#0E2346" stroke-width="0.0982" x1="30.287" y1="29.638" x2="10.758" y2="14.149"/>
	<line fill="none" stroke="#0E2346" stroke-width="0.0982" x1="30.287" y1="29.638" x2="12.964" y2="11.737"/>
	<line fill="none" stroke="#0E2346" stroke-width="0.0982" x1="30.287" y1="29.638" x2="15.469" y2="9.634"/>
	<line fill="none" stroke="#0E2346" stroke-width="0.0982" x1="30.287" y1="29.638" x2="18.229" y2="7.875"/>
	<line fill="none" stroke="#0E2346" stroke-width="0.0982" x1="30.287" y1="29.638" x2="21.197" y2="6.49"/>
	<line fill="none" stroke="#0E2346" stroke-width="0.0982" x1="30.287" y1="29.638" x2="24.322" y2="5.505"/>
	<line fill="none" stroke="#0E2346" stroke-width="0.0982" x1="30.287" y1="29.638" x2="27.549" y2="4.935"/>
	
		<radialGradient id="SVGID_3_" cx="36.9819" cy="36.7471" r="17.7836" gradientTransform="matrix(1.2208 0 0 1.215 -15.1471 -14.6473)" gradientUnits="userSpaceOnUse">
		<stop  offset="0" style="stop-color:#FFFFFF"/>
		<stop  offset="0.2639" style="stop-color:#FBFBFD"/>
		<stop  offset="0.4116" style="stop-color:#F0F2F9"/>
		<stop  offset="0.5306" style="stop-color:#E2E6F3"/>
		<stop  offset="0.6343" style="stop-color:#CDD6EB"/>
		<stop  offset="0.728" style="stop-color:#B4C3E1"/>
		<stop  offset="0.8146" style="stop-color:#97ADD5"/>
		<stop  offset="0.8941" style="stop-color:#7896C9"/>
		<stop  offset="0.9636" style="stop-color:#5682BD"/>
	</radialGradient>
	<ellipse fill="url(#SVGID_3_)" stroke="#0E2346" stroke-width="0.0982" cx="30" cy="30" rx="21.492" ry="21.823"/>
	
		<radialGradient id="SVGID_4_" cx="36.981" cy="36.7461" r="10.0762" gradientTransform="matrix(1.2208 0 0 1.215 -15.1471 -14.6473)" gradientUnits="userSpaceOnUse">
		<stop  offset="0" style="stop-color:#FFFFFF"/>
		<stop  offset="0.2551" style="stop-color:#FAFBFD"/>
		<stop  offset="0.4086" style="stop-color:#F0F2F9"/>
		<stop  offset="0.5352" style="stop-color:#E1E5F3"/>
		<stop  offset="0.6471" style="stop-color:#CCD5EA"/>
		<stop  offset="0.7494" style="stop-color:#B2C1E0"/>
		<stop  offset="0.8447" style="stop-color:#94ABD4"/>
		<stop  offset="0.9327" style="stop-color:#7494C7"/>
		<stop  offset="1" style="stop-color:#5682BD"/>
	</radialGradient>
	<polygon fill="url(#SVGID_4_)" stroke="#5682BD" stroke-width="0.2471" points="19.129,17.129 30.12,26.117 41.636,17.979 
		33.511,30.131 40.87,42.869 29.88,33.883 18.364,42.021 26.489,29.868 	"/>
	<polygon fill="#0E2346" stroke="#5682BD" stroke-width="0.2471" points="29.999,9.562 32.985,26.812 49.14,30 32.985,33.188 
		29.999,50.437 27.014,33.188 10.859,30 27.014,26.812 	"/>
	<line fill="#0E2346" stroke="#0E2346" stroke-width="0.0491" x1="30" y1="49.295" x2="30" y2="10.705"/>
	<line fill="#0E2346" stroke="#0E2346" stroke-width="0.0491" x1="12.08" y1="30" x2="47.92" y2="30"/>
	<line fill="none" stroke="#0E2346" stroke-width="0.0491" x1="31.493" y1="31.732" x2="28.508" y2="28.268"/>
	<line fill="#0E2346" stroke="#0E2346" stroke-width="0.0491" x1="31.493" y1="28.544" x2="28.508" y2="31.456"/>
	<line fill="#0E2346" stroke="#0E2346" stroke-width="0.0491" x1="28.506" y1="31.732" x2="31.494" y2="28.268"/>
	<line fill="none" stroke="#0E2346" stroke-width="0.0491" x1="28.506" y1="28.544" x2="31.494" y2="31.456"/>
	<line fill="none" stroke="#5682BD" stroke-width="0.0618" x1="11.754" y1="30" x2="48.821" y2="30"/>
	<line fill="none" stroke="#5682BD" stroke-width="0.0817" x1="30" y1="49.295" x2="30" y2="10.705"/>
	<line fill="none" stroke="#5682BD" stroke-width="0.0817" x1="30" y1="50.252" x2="30" y2="10.108"/>
	<line fill="none" stroke="#5682BD" stroke-width="0.0817" x1="27.014" y1="33.188" x2="32.84" y2="26.9"/>
	<line fill="none" stroke="#5682BD" stroke-width="0.0817" x1="32.985" y1="33.188" x2="27.014" y2="26.812"/>
</g>
</svg>
