<?xml version="1.0" encoding="utf-8"?>
<!-- Generator: Adobe Illustrator 14.0.0, SVG Export Plug-In . SVG Version: 6.00 Build 43363)  -->
<!DOCTYPE svg PUBLIC "-//W3C//DTD SVG 1.1//EN" "http://www.w3.org/Graphics/SVG/1.1/DTD/svg11.dtd">
<svg version="1.1" id="clipping" xmlns="http://www.w3.org/2000/svg" xmlns:xlink="http://www.w3.org/1999/xlink" x="0px" y="0px"
	 width="60.5px" height="60.5px" viewBox="0 0 60.5 60.5" enable-background="new 0 0 60.5 60.5" xml:space="preserve">
<linearGradient id="SVGID_1_" gradientUnits="userSpaceOnUse" x1="26.0029" y1="15.0107" x2="31.9719" y2="-22.6757">
	<stop  offset="0" style="stop-color:#FFFFFF"/>
	<stop  offset="0" style="stop-color:#FFFFFF"/>
	<stop  offset="0.0992" style="stop-color:#FAFAFA"/>
	<stop  offset="0.223" style="stop-color:#EAEAEA"/>
	<stop  offset="0.36" style="stop-color:#D1D1D1"/>
	<stop  offset="0.5064" style="stop-color:#ADADAD"/>
	<stop  offset="0.6604" style="stop-color:#808080"/>
	<stop  offset="0.8208" style="stop-color:#484848"/>
	<stop  offset="0.9835" style="stop-color:#070707"/>
	<stop  offset="1" style="stop-color:#000000"/>
</linearGradient>
<path display="none" opacity="0.52" fill="url(#SVGID_1_)" d="M83.902-14.452c0,16-23.878,28.971-53.333,28.971
	c-29.456,0-53.334-12.971-53.334-28.971"/>
<g id="XMLID_1_" display="none" opacity="0.54">
	<g display="inline">
		<g>
			<g>
				<linearGradient id="SVGID_2_" gradientUnits="userSpaceOnUse" x1="30.5752" y1="25.689" x2="59.911" y2="55.0248">
					<stop  offset="0" style="stop-color:#FFFFFF"/>
					<stop  offset="0.4181" style="stop-color:#A5A7AA"/>
					<stop  offset="1" style="stop-color:#000000"/>
				</linearGradient>
				<path fill="url(#SVGID_2_)" d="M49.193,4.057c1.65,0,3,1.35,3,3v37.25c0,1.65-1.35,3-3,3h-37.25c-1.65,0-3-1.35-3-3V7.057
					c0-1.65,1.35-3,3-3H49.193z"/>
			</g>
		</g>
	</g>
</g>
<g id="XMLID_2_" display="none" opacity="0.54">
</g>
<g>
	<g>
		<linearGradient id="SVGID_3_" gradientUnits="userSpaceOnUse" x1="30.0469" y1="-0.1489" x2="30.0469" y2="55.2529">
			<stop  offset="0" style="stop-color:#5682BD"/>
			<stop  offset="0.1366" style="stop-color:#5781BB;stop-opacity:0.8634"/>
			<stop  offset="0.2642" style="stop-color:#5B81B6;stop-opacity:0.7358"/>
			<stop  offset="0.3881" style="stop-color:#607FAF;stop-opacity:0.6119"/>
			<stop  offset="0.5099" style="stop-color:#637CA4;stop-opacity:0.4901"/>
			<stop  offset="0.6302" style="stop-color:#637594;stop-opacity:0.3698"/>
			<stop  offset="0.7493" style="stop-color:#5F697E;stop-opacity:0.2507"/>
			<stop  offset="0.8674" style="stop-color:#515560;stop-opacity:0.1326"/>
			<stop  offset="0.982" style="stop-color:#1F1F21;stop-opacity:0.018"/>
			<stop  offset="1" style="stop-color:#000000;stop-opacity:0"/>
		</linearGradient>
		<path fill="url(#SVGID_3_)" d="M30.047,39.349c-6.515,0-11.814-5.007-11.814-11.161s5.3-11.162,11.814-11.162
			c6.513,0,11.813,5.008,11.813,11.162S36.56,39.349,30.047,39.349L30.047,39.349z M30.047,20.214c-4.818,0-8.738,3.577-8.738,7.974
			s3.92,7.973,8.738,7.973c4.817,0,8.736-3.576,8.736-7.973S34.865,20.214,30.047,20.214L30.047,20.214z"/>
	</g>
	<g>
		<linearGradient id="SVGID_4_" gradientUnits="userSpaceOnUse" x1="30.0469" y1="-1.6113" x2="30.0469" y2="56.648">
			<stop  offset="0" style="stop-color:#5682BD"/>
			<stop  offset="0.1646" style="stop-color:#5781BB;stop-opacity:0.8354"/>
			<stop  offset="0.2958" style="stop-color:#5A81B7;stop-opacity:0.7042"/>
			<stop  offset="0.4155" style="stop-color:#5F80B1;stop-opacity:0.5845"/>
			<stop  offset="0.5283" style="stop-color:#637DA7;stop-opacity:0.4717"/>
			<stop  offset="0.6364" style="stop-color:#647799;stop-opacity:0.3636"/>
			<stop  offset="0.741" style="stop-color:#616D86;stop-opacity:0.259"/>
			<stop  offset="0.8426" style="stop-color:#585E6D;stop-opacity:0.1574"/>
			<stop  offset="0.9394" style="stop-color:#414249;stop-opacity:0.0606"/>
			<stop  offset="1" style="stop-color:#000000;stop-opacity:0"/>
		</linearGradient>
		<path fill="url(#SVGID_4_)" d="M30.047,45.414c-10.055,0-18.235-7.728-18.235-17.227c0-9.5,8.181-17.229,18.235-17.229
			c10.054,0,18.234,7.729,18.234,17.229C48.282,37.687,40.101,45.414,30.047,45.414L30.047,45.414z M30.047,15.88
			c-7.437,0-13.486,5.521-13.486,12.308c0,6.785,6.05,12.306,13.486,12.306c7.436,0,13.485-5.521,13.485-12.306
			C43.533,21.401,37.483,15.88,30.047,15.88L30.047,15.88z"/>
	</g>
	<linearGradient id="SVGID_5_" gradientUnits="userSpaceOnUse" x1="30.25" y1="-3.4668" x2="30.25" y2="58.4215">
		<stop  offset="0" style="stop-color:#5682BD"/>
		<stop  offset="0.2271" style="stop-color:#5781BB;stop-opacity:0.7729"/>
		<stop  offset="0.3638" style="stop-color:#5981B8;stop-opacity:0.6362"/>
		<stop  offset="0.4765" style="stop-color:#5E80B3;stop-opacity:0.5235"/>
		<stop  offset="0.5762" style="stop-color:#627EAA;stop-opacity:0.4238"/>
		<stop  offset="0.6674" style="stop-color:#647A9F;stop-opacity:0.3326"/>
		<stop  offset="0.7523" style="stop-color:#63728F;stop-opacity:0.2477"/>
		<stop  offset="0.8323" style="stop-color:#5D677B;stop-opacity:0.1677"/>
		<stop  offset="0.9085" style="stop-color:#505560;stop-opacity:0.0915"/>
		<stop  offset="0.9791" style="stop-color:#2C2C2F;stop-opacity:0.0209"/>
		<stop  offset="1" style="stop-color:#000000;stop-opacity:0"/>
	</linearGradient>
	<path fill="url(#SVGID_5_)" d="M30.251,55.235c-15.787,0-28.631-12.134-28.631-27.048c0-14.915,12.844-27.05,28.631-27.05
		c15.785,0,28.628,12.135,28.628,27.05C58.879,43.102,46.037,55.235,30.251,55.235L30.251,55.235z M30.251,8.865
		c-11.676,0-21.175,8.668-21.175,19.322s9.499,19.32,21.175,19.32c11.674,0,21.173-8.666,21.173-19.32S41.925,8.865,30.251,8.865
		L30.251,8.865z"/>
	<g>
		<linearGradient id="SVGID_6_" gradientUnits="userSpaceOnUse" x1="29.877" y1="31.7344" x2="30.6341" y2="54.2582">
			<stop  offset="0" style="stop-color:#FFFFFF"/>
			<stop  offset="0.0322" style="stop-color:#ECEEF3"/>
			<stop  offset="0.2841" style="stop-color:#9CA8C2"/>
			<stop  offset="0.5157" style="stop-color:#6A7D9F"/>
			<stop  offset="0.7196" style="stop-color:#4B6389"/>
			<stop  offset="0.8879" style="stop-color:#39557C"/>
			<stop  offset="1" style="stop-color:#335078"/>
		</linearGradient>
		<path fill="url(#SVGID_6_)" d="M33.611,59.362c-2.376,0-4.752,0-7.128,0c0-7.569-1.506-15.056-2.47-22.572
			c1.879-3.535,10.188-3.535,12.068,0C35.117,44.307,33.611,51.792,33.611,59.362z"/>
		<path fill="none" stroke="#0E2346" d="M33.611,59.362c-2.376,0-4.752,0-7.128,0c0-7.569-1.506-15.056-2.47-22.572
			c1.879-3.535,10.188-3.535,12.068,0C35.117,44.307,33.611,51.792,33.611,59.362z"/>
	</g>
	<radialGradient id="SVGID_7_" cx="30.2505" cy="28.1865" r="6.9385" gradientUnits="userSpaceOnUse">
		<stop  offset="0" style="stop-color:#FFFFFF"/>
		<stop  offset="0.0322" style="stop-color:#EFF0F6"/>
		<stop  offset="0.2841" style="stop-color:#A7B4CF"/>
		<stop  offset="0.5157" style="stop-color:#798FB6"/>
		<stop  offset="0.7196" style="stop-color:#5C79A5"/>
		<stop  offset="0.8879" style="stop-color:#4B6C9B"/>
		<stop  offset="1" style="stop-color:#446898"/>
	</radialGradient>
	<ellipse fill="url(#SVGID_7_)" stroke="#0E2346" cx="30.25" cy="28.188" rx="7.182" ry="6.686"/>
</g>
</svg>
