<?xml version="1.0" encoding="utf-8"?>
<!-- Generator: Adobe Illustrator 14.0.0, SVG Export Plug-In . SVG Version: 6.00 Build 43363)  -->
<!DOCTYPE svg PUBLIC "-//W3C//DTD SVG 1.1//EN" "http://www.w3.org/Graphics/SVG/1.1/DTD/svg11.dtd">
<svg version="1.1" id="Layer_1" xmlns="http://www.w3.org/2000/svg" xmlns:xlink="http://www.w3.org/1999/xlink" x="0px" y="0px"
	 width="60px" height="60px" viewBox="0 0 60 60" enable-background="new 0 0 60 60" xml:space="preserve">
<g>
	<g>
		<radialGradient id="SVGID_1_" cx="20.1533" cy="15.9438" r="21.3811" gradientUnits="userSpaceOnUse">
			<stop  offset="0" style="stop-color:#FFFFFF"/>
			<stop  offset="1" style="stop-color:#4175A0"/>
		</radialGradient>
		<circle fill="url(#SVGID_1_)" stroke="#4175A0" stroke-width="0.2344" cx="21.864" cy="16.505" r="6.989"/>
		<radialGradient id="SVGID_2_" cx="20.1533" cy="15.9434" r="21.3804" gradientUnits="userSpaceOnUse">
			<stop  offset="0" style="stop-color:#FFFFFF"/>
			<stop  offset="1" style="stop-color:#4175A0"/>
		</radialGradient>
		<polygon fill="url(#SVGID_2_)" stroke="#4175A0" stroke-width="0.2857" points="21.317,8.72 19.17,9.075 17.78,0.677 
			19.927,0.322 		"/>
		<radialGradient id="SVGID_3_" cx="20.1528" cy="15.9434" r="21.3813" gradientUnits="userSpaceOnUse">
			<stop  offset="0" style="stop-color:#FFFFFF"/>
			<stop  offset="1" style="stop-color:#4175A0"/>
		</radialGradient>
		<polygon fill="url(#SVGID_3_)" stroke="#4175A0" stroke-width="0.2857" points="25.684,9.699 23.694,8.816 27.146,1.036 
			29.135,1.918 		"/>
		<radialGradient id="SVGID_4_" cx="20.1533" cy="15.9443" r="21.3822" gradientUnits="userSpaceOnUse">
			<stop  offset="0" style="stop-color:#FFFFFF"/>
			<stop  offset="1" style="stop-color:#4175A0"/>
		</radialGradient>
		<polygon fill="url(#SVGID_4_)" stroke="#4175A0" stroke-width="0.2857" points="28.825,12.977 27.664,11.136 34.861,6.593 
			36.024,8.433 		"/>
		<radialGradient id="SVGID_5_" cx="20.1523" cy="15.9438" r="21.3825" gradientUnits="userSpaceOnUse">
			<stop  offset="0" style="stop-color:#FFFFFF"/>
			<stop  offset="1" style="stop-color:#4175A0"/>
		</radialGradient>
		<polygon fill="url(#SVGID_5_)" stroke="#4175A0" stroke-width="0.2857" points="29.664,16.776 29.535,14.604 38.033,14.102 
			38.161,16.273 		"/>
		<radialGradient id="SVGID_6_" cx="20.1538" cy="15.9438" r="21.3805" gradientUnits="userSpaceOnUse">
			<stop  offset="0" style="stop-color:#FFFFFF"/>
			<stop  offset="1" style="stop-color:#4175A0"/>
		</radialGradient>
		<polygon fill="url(#SVGID_6_)" stroke="#4175A0" stroke-width="0.2857" points="18.263,23.429 20.279,24.248 17.077,32.134 
			15.06,31.316 		"/>
		<radialGradient id="SVGID_7_" cx="20.1533" cy="15.9443" r="21.3797" gradientUnits="userSpaceOnUse">
			<stop  offset="0" style="stop-color:#FFFFFF"/>
			<stop  offset="1" style="stop-color:#4175A0"/>
		</radialGradient>
		<polygon fill="url(#SVGID_7_)" stroke="#4175A0" stroke-width="0.2857" points="15.367,20.83 16.738,22.52 10.125,27.88 
			8.755,26.189 		"/>
		<radialGradient id="SVGID_8_" cx="20.1528" cy="15.9438" r="21.3805" gradientUnits="userSpaceOnUse">
			<stop  offset="0" style="stop-color:#FFFFFF"/>
			<stop  offset="1" style="stop-color:#4175A0"/>
		</radialGradient>
		<polygon fill="url(#SVGID_8_)" stroke="#4175A0" stroke-width="0.2857" points="14.086,17.155 14.47,19.297 6.091,20.799 
			5.708,18.656 		"/>
		<radialGradient id="SVGID_9_" cx="20.1528" cy="15.9443" r="21.38" gradientUnits="userSpaceOnUse">
			<stop  offset="0" style="stop-color:#FFFFFF"/>
			<stop  offset="1" style="stop-color:#4175A0"/>
		</radialGradient>
		<polygon fill="url(#SVGID_9_)" stroke="#4175A0" stroke-width="0.2857" points="14.739,13.319 14.042,15.38 5.979,12.649 
			6.677,10.588 		"/>
		<radialGradient id="SVGID_10_" cx="20.1538" cy="15.9434" r="21.3805" gradientUnits="userSpaceOnUse">
			<stop  offset="0" style="stop-color:#FFFFFF"/>
			<stop  offset="1" style="stop-color:#4175A0"/>
		</radialGradient>
		<polygon fill="url(#SVGID_10_)" stroke="#4175A0" stroke-width="0.2857" points="17.163,10.275 15.556,11.743 9.815,5.458 
			11.422,3.991 		"/>
	</g>
	<g>
		<g id="XMLID_1_">
			<g>
				<linearGradient id="SVGID_11_" gradientUnits="userSpaceOnUse" x1="30.5396" y1="15.5425" x2="31.3595" y2="38.1506">
					<stop  offset="0" style="stop-color:#FFFFFF"/>
					<stop  offset="0.0102" style="stop-color:#F1F2F6"/>
					<stop  offset="0.0671" style="stop-color:#BFC9DA"/>
					<stop  offset="0.1251" style="stop-color:#98AAC6"/>
					<stop  offset="0.1832" style="stop-color:#7B95B7"/>
					<stop  offset="0.2414" style="stop-color:#6486AC"/>
					<stop  offset="0.2998" style="stop-color:#527CA5"/>
					<stop  offset="0.3585" style="stop-color:#4677A1"/>
					<stop  offset="0.4182" style="stop-color:#4175A0"/>
					<stop  offset="0.5613" style="stop-color:#366189"/>
					<stop  offset="0.8642" style="stop-color:#1B3659"/>
					<stop  offset="0.9939" style="stop-color:#0E2346"/>
				</linearGradient>
				<path fill="url(#SVGID_11_)" d="M9.173,35.927c-2.825-3.805,0.075-8.704,4.417-9.32v-0.004c0.993-3.51,4.906-5.482,8.326-4.194
					c1.495-3.624,5.079-6.084,8.999-6.178c3.905-0.096,7.593,2.169,9.272,5.695c0.082,0.173,0.157,0.349,0.229,0.525
					c4.313-1.572,9.271,1.307,9.758,5.916c4.159,0.499,5.655,6.375,2.195,8.776v0.038H10.417
					C9.941,36.819,9.522,36.396,9.173,35.927z"/>
			</g>
			<g>
				<path fill="none" stroke="#FFFFFF" stroke-width="0.7028" stroke-linecap="round" stroke-linejoin="round" d="M9.173,35.927
					c-2.825-3.805,0.075-8.704,4.417-9.32c0.009-0.002,0.021-0.002,0.03-0.004"/>
				<path fill="none" stroke="#FFFFFF" stroke-width="0.7028" stroke-linecap="round" stroke-linejoin="round" d="M10.417,37.18
					c-0.476-0.361-0.895-0.785-1.244-1.253"/>
				<path fill="none" stroke="#FFFFFF" stroke-width="0.7028" stroke-linecap="round" stroke-linejoin="round" d="M13.589,26.603
					c0.993-3.51,4.906-5.482,8.326-4.194c0.007,0.002,0.012,0.005,0.019,0.007"/>
				<path fill="none" stroke="#FFFFFF" stroke-width="0.7028" stroke-linecap="round" stroke-linejoin="round" d="M21.913,22.414
					c0-0.002,0.002-0.002,0.002-0.005c1.495-3.624,5.079-6.084,8.999-6.178c3.905-0.096,7.593,2.169,9.272,5.695
					c0.082,0.173,0.157,0.349,0.229,0.525c0.017,0.033,0.031,0.068,0.045,0.103"/>
				<path fill="none" stroke="#FFFFFF" stroke-width="0.7028" stroke-linecap="round" stroke-linejoin="round" d="M40.386,22.46
					c0.01-0.005,0.021-0.007,0.03-0.009c4.313-1.572,9.271,1.307,9.758,5.916c0.007,0.054,0.012,0.108,0.017,0.162"/>
				<path fill="none" stroke="#FFFFFF" stroke-width="0.7028" stroke-linecap="round" stroke-linejoin="round" d="M50.137,28.362
					c0.012,0.002,0.025,0.002,0.037,0.005c4.159,0.499,5.655,6.375,2.195,8.776"/>
				
					<line fill="none" stroke="#FFFFFF" stroke-width="0.7028" stroke-linecap="round" stroke-linejoin="round" x1="10.417" y1="37.18" x2="52.369" y2="37.18"/>
			</g>
		</g>
	</g>
	
		<radialGradient id="SVGID_12_" cx="90.8691" cy="-85.5781" r="3.8401" gradientTransform="matrix(0.9077 0.4196 -0.4196 0.9077 -90.7794 94.7916)" gradientUnits="userSpaceOnUse">
		<stop  offset="0" style="stop-color:#FFFFFF"/>
		<stop  offset="1" style="stop-color:#4175A0"/>
	</radialGradient>
	<path fill="url(#SVGID_12_)" stroke="#000000" stroke-width="0.1308" stroke-linecap="round" stroke-linejoin="round" d="
		M29.534,57.994c-0.672,1.454-2.396,2.088-3.849,1.416c-1.454-0.672-2.087-2.396-1.416-3.849c0.672-1.454,5.269-4.486,5.269-4.486
		S30.207,56.541,29.534,57.994z"/>
	
		<radialGradient id="SVGID_13_" cx="82.4551" cy="-94.0771" r="3.8407" gradientTransform="matrix(0.9077 0.4196 -0.4196 0.9077 -90.7794 94.7916)" gradientUnits="userSpaceOnUse">
		<stop  offset="0" style="stop-color:#FFFFFF"/>
		<stop  offset="0.9758" style="stop-color:#4175A0"/>
	</radialGradient>
	<path fill="url(#SVGID_13_)" stroke="#000000" stroke-width="0.1308" stroke-linecap="round" stroke-linejoin="round" d="
		M25.461,46.75c-0.672,1.453-2.396,2.087-3.85,1.415c-1.454-0.672-2.087-2.396-1.415-3.849c0.672-1.454,5.269-4.487,5.269-4.487
		S26.133,45.295,25.461,46.75z"/>
	
		<radialGradient id="SVGID_14_" cx="95.1914" cy="-98.416" r="3.8407" gradientTransform="matrix(0.9077 0.4196 -0.4196 0.9077 -90.7794 94.7916)" gradientUnits="userSpaceOnUse">
		<stop  offset="0" style="stop-color:#FFFFFF"/>
		<stop  offset="0.9818" style="stop-color:#4175A0"/>
	</radialGradient>
	<path fill="url(#SVGID_14_)" stroke="#000000" stroke-width="0.1308" stroke-linecap="round" stroke-linejoin="round" d="
		M38.843,48.155c-0.672,1.453-2.396,2.086-3.85,1.415c-1.453-0.672-2.087-2.396-1.416-3.849c0.673-1.454,5.27-4.487,5.27-4.487
		S39.514,46.701,38.843,48.155z"/>
</g>
</svg>
