<?xml version="1.0" encoding="UTF-8" standalone="no"?>
<!-- Created with Inkscape (http://www.inkscape.org/) -->

<svg
   xmlns:dc="http://purl.org/dc/elements/1.1/"
   xmlns:cc="http://creativecommons.org/ns#"
   xmlns:rdf="http://www.w3.org/1999/02/22-rdf-syntax-ns#"
   xmlns:svg="http://www.w3.org/2000/svg"
   xmlns="http://www.w3.org/2000/svg"
   xmlns:sodipodi="http://sodipodi.sourceforge.net/DTD/sodipodi-0.dtd"
   xmlns:inkscape="http://www.inkscape.org/namespaces/inkscape"
   width="135"
   height="30"
   id="svg3612"
   version="1.1"
   inkscape:version="0.47 r22583"
   sodipodi:docname="service_status_icons.svg">
  <defs
     id="defs3614">
    <inkscape:perspective
       sodipodi:type="inkscape:persp3d"
       inkscape:vp_x="0 : 526.18109 : 1"
       inkscape:vp_y="0 : 1000 : 0"
       inkscape:vp_z="744.09448 : 526.18109 : 1"
       inkscape:persp3d-origin="372.04724 : 350.78739 : 1"
       id="perspective3620" />
    <inkscape:perspective
       id="perspective4172"
       inkscape:persp3d-origin="0.5 : 0.33333333 : 1"
       inkscape:vp_z="1 : 0.5 : 1"
       inkscape:vp_y="0 : 1000 : 0"
       inkscape:vp_x="0 : 0.5 : 1"
       sodipodi:type="inkscape:persp3d" />
    <inkscape:perspective
       id="perspective4197"
       inkscape:persp3d-origin="0.5 : 0.33333333 : 1"
       inkscape:vp_z="1 : 0.5 : 1"
       inkscape:vp_y="0 : 1000 : 0"
       inkscape:vp_x="0 : 0.5 : 1"
       sodipodi:type="inkscape:persp3d" />
    <inkscape:perspective
       id="perspective2930"
       inkscape:persp3d-origin="0.5 : 0.33333333 : 1"
       inkscape:vp_z="1 : 0.5 : 1"
       inkscape:vp_y="0 : 1000 : 0"
       inkscape:vp_x="0 : 0.5 : 1"
       sodipodi:type="inkscape:persp3d" />
  </defs>
  <sodipodi:namedview
     id="base"
     pagecolor="#101b28"
     bordercolor="#272810"
     borderopacity="1"
     inkscape:pageopacity="0"
     inkscape:pageshadow="2"
     inkscape:zoom="5.6568542"
     inkscape:cx="80.925366"
     inkscape:cy="7.9453372"
     inkscape:document-units="px"
     inkscape:current-layer="layer1"
     showgrid="false"
     inkscape:window-width="1080"
     inkscape:window-height="1847"
     inkscape:window-x="0"
     inkscape:window-y="25"
     inkscape:window-maximized="1" />
  <metadata
     id="metadata3617">
    <rdf:RDF>
      <cc:Work
         rdf:about="">
        <dc:format>image/svg+xml</dc:format>
        <dc:type
           rdf:resource="http://purl.org/dc/dcmitype/StillImage" />
        <dc:title></dc:title>
      </cc:Work>
    </rdf:RDF>
  </metadata>
  <g
     inkscape:label="Layer 1"
     inkscape:groupmode="layer"
     id="layer1"
     transform="translate(-235,-438.94354)">
    <path
       sodipodi:type="arc"
       style="fill:#00df0a;fill-opacity:1;stroke:#ffffff;stroke-width:26.67714119;stroke-miterlimit:4;stroke-opacity:1;stroke-dasharray:none"
       id="path4155"
       sodipodi:cx="404.28571"
       sodipodi:cy="313.79074"
       sodipodi:rx="181.42857"
       sodipodi:ry="181.42857"
       d="m 585.71428,313.79074 a 181.42857,181.42857 0 1 1 -362.85715,0 181.42857,181.42857 0 1 1 362.85715,0 z"
       transform="matrix(0.07701504,0,0,0.07701504,218.86392,429.77694)" />
    <path
       style="fill:#003602;fill-opacity:1;stroke:none"
       d="m 250.00116,444.78124 -9.29716,9.26828 5.13354,0 0,7.45602 8.32485,0 0,-7.45602 5.13353,0 -9.29476,-9.26828 z"
       id="path4159" />
    <path
       sodipodi:type="arc"
       style="fill:#0064df;fill-opacity:1;stroke:#ffffff;stroke-width:26.67714119000000039;stroke-miterlimit:4;stroke-opacity:1;stroke-dasharray:none"
       id="path4155-0"
       sodipodi:cx="404.28571"
       sodipodi:cy="313.79074"
       sodipodi:rx="181.42857"
       sodipodi:ry="181.42857"
       d="m 585.71428,313.79074 a 181.42857,181.42857 0 1 1 -362.85715,0 181.42857,181.42857 0 1 1 362.85715,0 z"
       transform="matrix(0.07701504,0,0,-0.07701504,288.86392,478.11014)" />
    <path
       sodipodi:type="arc"
       style="fill:#dfa300;fill-opacity:1;stroke:#ffffff;stroke-width:26.67714119;stroke-miterlimit:4;stroke-opacity:1;stroke-dasharray:none"
       id="path4155-0-0"
       sodipodi:cx="404.28571"
       sodipodi:cy="313.79074"
       sodipodi:rx="181.42857"
       sodipodi:ry="181.42857"
       d="m 585.71428,313.79074 c 0,100.20024 -81.22834,181.42857 -181.42857,181.42857 -100.20024,0 -181.42858,-81.22833 -181.42858,-181.42857 0,-100.20023 81.22834,-181.42857 181.42858,-181.42857 100.20023,0 181.42857,81.22834 181.42857,181.42857 z"
       transform="matrix(0.07701504,0,0,-0.07701504,253.86392,478.11014)" />
    <path
       sodipodi:type="arc"
       style="fill:#df0000;fill-opacity:1;stroke:#ffffff;stroke-width:26.67714119;stroke-miterlimit:4;stroke-opacity:1;stroke-dasharray:none"
       id="path4155-0-9"
       sodipodi:cx="404.28571"
       sodipodi:cy="313.79074"
       sodipodi:rx="181.42857"
       sodipodi:ry="181.42857"
       d="m 585.71428,313.79074 a 181.42857,181.42857 0 1 1 -362.85715,0 181.42857,181.42857 0 1 1 362.85715,0 z"
       transform="matrix(0.07701504,0,0,-0.07701504,323.86392,478.11015)" />
    <path
       style="fill:#360000;fill-opacity:1;stroke:none"
       d="m 355.00116,463.70554 -9.29716,-9.26828 5.13354,0 0,-7.45602 8.32485,0 0,7.45602 5.13353,0 -9.29476,9.26828 z"
       id="path4159-8-9" />
    <path
       id="rect3732"
       style="fill:#362700;fill-opacity:1;stroke:#362700;stroke-width:1.50328636;stroke-miterlimit:4;stroke-opacity:1"
       d="m 283.75164,445.49471 2.49672,0 0,10.88453 -2.49672,0 0,-10.88453 z m 0,14.53807 2.49672,0 0,2.3596 -2.49672,0 0,-2.3596 z" />
    <path
       id="path3749"
       style="font-size:40px;font-style:normal;font-variant:normal;font-weight:normal;font-stretch:normal;text-indent:0;text-align:start;text-decoration:none;line-height:normal;letter-spacing:normal;word-spacing:normal;text-transform:none;direction:ltr;block-progression:tb;writing-mode:lr-tb;text-anchor:start;color:#000000;fill:#001836;fill-opacity:1;fill-rule:nonzero;stroke:none;stroke-width:1.3839184;marker:none;visibility:visible;display:inline;overflow:visible;enable-background:accumulate;font-family:Bitstream Vera Sans;-inkscape-font-specification:Bitstream Vera Sans"
       d="m 320.37525,443.61541 c -1.0381,3e-5 -2.04902,0.12187 -3.03125,0.375 -0.97289,0.25337 -1.93369,0.64664 -2.875,1.15625 l -0.375,0.1875 0,0.40625 0,2.40625 0,1.25 1.0625,-0.65625 c 0.89024,-0.54902 1.73867,-0.9717 2.53125,-1.25 0.79892,-0.27737 1.52541,-0.40623 2.1875,-0.40625 0.92492,2e-5 1.58977,0.20538 2.0625,0.5625 0.4859,0.36156 0.65624,0.71513 0.65625,1.28125 -10e-6,0.28014 -0.0588,0.56641 -0.25,0.875 -0.17859,0.29975 -0.52684,0.67501 -1.03125,1.09375 l 0,0.0312 -0.0312,0 -1.28125,1.125 c -0.89671,0.76504 -1.50258,1.44914 -1.84375,2.15625 -0.32794,0.67972 -0.46876,1.47477 -0.46875,2.40625 l 0,1.96875 0,0.6875 0.6875,0 2.03125,0 0.6875,0 0.71875,0 0,-1.375 0,-0.875 c 0,-0.42801 0.008,-0.75785 0.0312,-0.96875 0.0235,-0.2096 0.0578,-0.38114 0.0937,-0.5 0.002,-0.007 -0.002,-0.0244 0,-0.0312 0.0452,-0.1174 0.1152,-0.24156 0.25,-0.40625 0.14662,-0.17672 0.47081,-0.48621 0.90625,-0.875 l 1.25,-1.09375 c 0.89201,-0.76103 1.53047,-1.43855 1.9375,-2.125 0.39908,-0.68296 0.62499,-1.44935 0.625,-2.21875 -1e-5,-1.5356 -0.66233,-2.87475 -1.875,-3.8125 -1.20461,-0.93984 -2.79321,-1.37497 -4.65625,-1.375 l 5e-5,0 z m -2.813,17.00029 5e-4,3.65596 4.34375,0 0,-3.65625 -4.34425,2.9e-4 z" />
  </g>
</svg>
