<?xml version="1.0" encoding="UTF-8" standalone="no"?>
<!-- Created with Inkscape (http://www.inkscape.org/) -->

<svg
   xmlns:dc="http://purl.org/dc/elements/1.1/"
   xmlns:cc="http://creativecommons.org/ns#"
   xmlns:rdf="http://www.w3.org/1999/02/22-rdf-syntax-ns#"
   xmlns:svg="http://www.w3.org/2000/svg"
   xmlns="http://www.w3.org/2000/svg"
   xmlns:sodipodi="http://sodipodi.sourceforge.net/DTD/sodipodi-0.dtd"
   xmlns:inkscape="http://www.inkscape.org/namespaces/inkscape"
   width="100"
   height="30.000011"
   id="svg3612"
   version="1.1"
   inkscape:version="0.46+devel"
   sodipodi:docname="service_status_icons.svg">
  <defs
     id="defs3614">
    <inkscape:perspective
       sodipodi:type="inkscape:persp3d"
       inkscape:vp_x="0 : 526.18109 : 1"
       inkscape:vp_y="0 : 1000 : 0"
       inkscape:vp_z="744.09448 : 526.18109 : 1"
       inkscape:persp3d-origin="372.04724 : 350.78739 : 1"
       id="perspective3620" />
    <inkscape:perspective
       id="perspective4172"
       inkscape:persp3d-origin="0.5 : 0.33333333 : 1"
       inkscape:vp_z="1 : 0.5 : 1"
       inkscape:vp_y="0 : 1000 : 0"
       inkscape:vp_x="0 : 0.5 : 1"
       sodipodi:type="inkscape:persp3d" />
    <inkscape:perspective
       id="perspective4197"
       inkscape:persp3d-origin="0.5 : 0.33333333 : 1"
       inkscape:vp_z="1 : 0.5 : 1"
       inkscape:vp_y="0 : 1000 : 0"
       inkscape:vp_x="0 : 0.5 : 1"
       sodipodi:type="inkscape:persp3d" />
  </defs>
  <sodipodi:namedview
     id="base"
     pagecolor="#002b4c"
     bordercolor="#666666"
     borderopacity="1.0"
     inkscape:pageopacity="0"
     inkscape:pageshadow="2"
     inkscape:zoom="2.8284271"
     inkscape:cx="74.819196"
     inkscape:cy="13.652444"
     inkscape:document-units="px"
     inkscape:current-layer="layer1"
     showgrid="false"
     inkscape:window-width="1280"
     inkscape:window-height="731"
     inkscape:window-x="0"
     inkscape:window-y="25"
     inkscape:window-maximized="1" />
  <metadata
     id="metadata3617">
    <rdf:RDF>
      <cc:Work
         rdf:about="">
        <dc:format>image/svg+xml</dc:format>
        <dc:type
           rdf:resource="http://purl.org/dc/dcmitype/StillImage" />
        <dc:title></dc:title>
      </cc:Work>
    </rdf:RDF>
  </metadata>
  <g
     inkscape:label="Layer 1"
     inkscape:groupmode="layer"
     id="layer1"
     transform="translate(-235,-438.94353)">
    <g
       id="g4234">
      <path
         transform="matrix(0.07701504,0,0,0.07701504,218.86392,429.77694)"
         d="m 585.71428,313.79074 c 0,100.20024 -81.22834,181.42857 -181.42857,181.42857 -100.20024,0 -181.42858,-81.22833 -181.42858,-181.42857 0,-100.20023 81.22834,-181.42857 181.42858,-181.42857 100.20023,0 181.42857,81.22834 181.42857,181.42857 z"
         sodipodi:ry="181.42857"
         sodipodi:rx="181.42857"
         sodipodi:cy="313.79074"
         sodipodi:cx="404.28571"
         id="path4155"
         style="fill:#00df0a;fill-opacity:1;stroke:#ffffff;stroke-width:26.67714119;stroke-miterlimit:4;stroke-opacity:1;stroke-dasharray:none"
         sodipodi:type="arc" />
      <path
         id="path4159"
         d="m 250.00116,445.58139 -9.29716,9.26828 5.13354,0 0,7.45602 8.32485,0 0,-7.45602 5.13353,0 -9.29476,-9.26828 z"
         style="fill:#003602;fill-opacity:1;stroke:none" />
    </g>
    <g
       id="g4242"
       transform="translate(-11.2135,0)">
      <path
         transform="matrix(0.07701504,0,0,-0.07701504,300.07742,478.11014)"
         d="m 585.71428,313.79074 c 0,100.20024 -81.22834,181.42857 -181.42857,181.42857 -100.20024,0 -181.42858,-81.22833 -181.42858,-181.42857 0,-100.20023 81.22834,-181.42857 181.42858,-181.42857 100.20023,0 181.42857,81.22834 181.42857,181.42857 z"
         sodipodi:ry="181.42857"
         sodipodi:rx="181.42857"
         sodipodi:cy="313.79074"
         sodipodi:cx="404.28571"
         id="path4155-0"
         style="fill:#df0000;fill-opacity:1;stroke:#ffffff;stroke-width:26.67714119;stroke-miterlimit:4;stroke-opacity:1;stroke-dasharray:none"
         sodipodi:type="arc" />
      <path
         id="path4159-8"
         d="m 331.21466,462.30569 -9.29716,-9.26828 5.13354,0 0,-7.45602 8.32485,0 0,7.45602 5.13353,0 -9.29476,9.26828 z"
         style="fill:#360000;fill-opacity:1;stroke:none" />
    </g>
    <path
       sodipodi:type="arc"
       style="fill:#dfa300;fill-opacity:1;stroke:#ffffff;stroke-width:26.67714119000000039;stroke-miterlimit:4;stroke-opacity:1;stroke-dasharray:none"
       id="path4155-0-0"
       sodipodi:cx="404.28571"
       sodipodi:cy="313.79074"
       sodipodi:rx="181.42857"
       sodipodi:ry="181.42857"
       d="m 585.71428,313.79074 a 181.42857,181.42857 0 1 1 -362.85715,0 181.42857,181.42857 0 1 1 362.85715,0 z"
       transform="matrix(0.07701504,0,0,-0.07701504,253.86392,478.11014)" />
    <rect
       style="fill:#362700;fill-opacity:1;stroke:none"
       id="rect4214"
       width="17.089714"
       height="5.1879759"
       x="276.45514"
       y="451.34955" />
  </g>
</svg>
