<?xml version="1.0" encoding="UTF-8" standalone="no"?>
<!-- Created with Inkscape (http://www.inkscape.org/) -->

<svg
   xmlns:dc="http://purl.org/dc/elements/1.1/"
   xmlns:cc="http://creativecommons.org/ns#"
   xmlns:rdf="http://www.w3.org/1999/02/22-rdf-syntax-ns#"
   xmlns:svg="http://www.w3.org/2000/svg"
   xmlns="http://www.w3.org/2000/svg"
   xmlns:xlink="http://www.w3.org/1999/xlink"
   xmlns:sodipodi="http://sodipodi.sourceforge.net/DTD/sodipodi-0.dtd"
   xmlns:inkscape="http://www.inkscape.org/namespaces/inkscape"
   width="60"
   height="60"
   id="svg2"
   sodipodi:version="0.32"
   inkscape:version="0.46+devel"
   version="1.0"
   sodipodi:docname="maps.svg"
   inkscape:output_extension="org.inkscape.output.svg.inkscape"
   inkscape:export-xdpi="90"
   inkscape:export-ydpi="90">
  <defs
     id="defs4">
    <linearGradient
       id="linearGradient2337">
      <stop
         style="stop-color:#002147;stop-opacity:1;"
         offset="0"
         id="stop2339" />
      <stop
         style="stop-color:#4483cb;stop-opacity:1;"
         offset="1"
         id="stop2341" />
    </linearGradient>
    <inkscape:perspective
       sodipodi:type="inkscape:persp3d"
       inkscape:vp_x="0 : 526.18109 : 1"
       inkscape:vp_y="0 : 1000 : 0"
       inkscape:vp_z="744.09448 : 526.18109 : 1"
       inkscape:persp3d-origin="372.04724 : 350.78739 : 1"
       id="perspective10" />
    <inkscape:perspective
       id="perspective853"
       inkscape:persp3d-origin="0.5 : 0.33333333 : 1"
       inkscape:vp_z="1 : 0.5 : 1"
       inkscape:vp_y="0 : 1000 : 0"
       inkscape:vp_x="0 : 0.5 : 1"
       sodipodi:type="inkscape:persp3d" />
    <inkscape:perspective
       id="perspective897"
       inkscape:persp3d-origin="0.5 : 0.33333333 : 1"
       inkscape:vp_z="1 : 0.5 : 1"
       inkscape:vp_y="0 : 1000 : 0"
       inkscape:vp_x="0 : 0.5 : 1"
       sodipodi:type="inkscape:persp3d" />
    <linearGradient
       inkscape:collect="always"
       xlink:href="#linearGradient2337"
       id="linearGradient2343"
       x1="121.6023"
       y1="460.94064"
       x2="592.60137"
       y2="460.94064"
       gradientUnits="userSpaceOnUse" />
    <linearGradient
       inkscape:collect="always"
       xlink:href="#linearGradient2337"
       id="linearGradient2360"
       x1="357.10184"
       y1="225.44112"
       x2="357.10184"
       y2="696.44019"
       gradientUnits="userSpaceOnUse" />
  </defs>
  <sodipodi:namedview
     id="base"
     pagecolor="#ffffff"
     bordercolor="#666666"
     borderopacity="1.0"
     inkscape:pageopacity="0.0"
     inkscape:pageshadow="2"
     inkscape:zoom="8"
     inkscape:cx="11.141416"
     inkscape:cy="30"
     inkscape:document-units="px"
     inkscape:current-layer="layer1"
     showgrid="false"
     inkscape:window-width="1280"
     inkscape:window-height="729"
     inkscape:window-x="0"
     inkscape:window-y="25" />
  <metadata
     id="metadata7">
    <rdf:RDF>
      <cc:Work
         rdf:about="">
        <dc:format>image/svg+xml</dc:format>
        <dc:type
           rdf:resource="http://purl.org/dc/dcmitype/StillImage" />
        <dc:title></dc:title>
      </cc:Work>
    </rdf:RDF>
  </metadata>
  <g
     inkscape:label="Layer 1"
     inkscape:groupmode="layer"
     id="layer1"
     transform="translate(-327.10184,-430.94064)">
    <g
       id="g914"
       transform="matrix(0.12738879,0,0,0.12738879,311.61107,402.22197)"
       style="fill:url(#linearGradient2360);fill-opacity:1">
      <path
         id="path12"
         style="font-size:medium;font-style:normal;font-variant:normal;font-weight:normal;font-stretch:normal;text-indent:0;text-align:start;text-decoration:none;line-height:normal;letter-spacing:normal;word-spacing:normal;text-transform:none;direction:ltr;block-progression:tb;writing-mode:lr-tb;text-anchor:start;color:#000000;fill:url(#linearGradient2360);fill-opacity:1.0;fill-rule:nonzero;stroke:none;stroke-width:15;marker:none;visibility:visible;display:inline;overflow:visible;enable-background:accumulate;font-family:Bitstream Vera Sans;-inkscape-font-specification:Bitstream Vera Sans"
         d="m 459.69114,225.44111 -39.61973,201.68944 -0.90573,4.5981 3.73458,2.81721 169.70111,128.91454 -201.67277,-39.59329 -4.58144,-0.8793 -2.83388,3.70815 -128.9243,169.74421 39.60305,-201.71587 0.92241,-4.57167 -3.75125,-2.84365 -169.76089,-128.95074 201.73255,39.62949 4.5981,0.90574 2.83388,-3.70815 128.92431,-169.74421 z m -181.41743,61.37453 17.03125,90.375 26.3125,5.15625 14.15625,-18.625 -57.5,-76.90625 z m 252.90625,95.3125 -90.34375,17 -5.15625,26.3125 18.625,14.15625 76.875,-57.46875 z m -271.28125,100.15625 -76.875,57.46875 90.375,-17 5.15625,-26.3125 -18.65625,-14.15625 z m 132.71875,57.1875 -14.1875,18.65625 57.5,76.9375 -17.03125,-90.4375 -26.28125,-5.15625 z M 358.30663,293.76995 c -1.37174,-0.0115 -2.75177,0.008 -4.125,0.0312 -16.87833,0.28043 -33.84165,3.14774 -50.28125,8.6875 l 38.875,52.03125 44.09375,-58.03125 c -9.40952,-1.70495 -18.96033,-2.63801 -28.5625,-2.71875 z m -85.75,23.03125 c -1.54022,0.90468 -3.07204,1.82166 -4.59375,2.78125 -18.55494,11.70067 -34.01954,26.45243 -46.15625,43.1875 l 61.6875,12.125 -10.9375,-58.09375 z m 182.6875,8.8125 -12.125,61.75 58.15625,-10.96875 c -0.90398,-1.53915 -1.82231,-3.07307 -2.78125,-4.59375 -11.71369,-18.57559 -26.49187,-34.0447 -43.25,-46.1875 z m 60.34375,82.125 -52.03125,38.90625 58.03125,44.0625 c 4.94323,-27.28139 3.14147,-55.82505 -6,-82.96875 z m -322.96875,23.4375 c -4.94948,27.28748 -3.1438,55.84868 6,83 l 52.03125,-38.90625 -58.03125,-44.09375 z m 78.4375,103.40625 -58.125,10.9375 c 0.90421,1.53955 1.82207,3.07268 2.78125,4.59375 11.7089,18.56799 26.46911,34.04694 43.21875,46.1875 l 12.125,-61.71875 z m 159.625,12.40625 10.96875,58.125 c 1.53915,-0.90398 3.07307,-1.82231 4.59375,-2.78125 18.56373,-11.70621 34.0482,-26.47387 46.1875,-43.21875 l -61.75,-12.125 z m -59.25,20.40625 -44.09375,58.03125 c 27.28139,4.94323 55.82505,3.14147 82.96875,-6 l -38.875,-52.03125 z" />
    </g>
  </g>
</svg>
