<?xml version="1.0" encoding="utf-8"?>
<!-- Generator: Adobe Illustrator 15.0.0, SVG Export Plug-In . SVG Version: 6.00 Build 0)  -->
<!DOCTYPE svg PUBLIC "-//W3C//DTD SVG 1.1//EN" "http://www.w3.org/Graphics/SVG/1.1/DTD/svg11.dtd">
<svg version="1.1" id="Layer_1" xmlns="http://www.w3.org/2000/svg" xmlns:xlink="http://www.w3.org/1999/xlink" x="0px" y="0px"
	 width="50px" height="49px" viewBox="0 0 87.333 86.333" enable-background="new 0 0 87.333 86.333" xml:space="preserve">
<linearGradient id="SVGID_1_" gradientUnits="userSpaceOnUse" x1="44.3862" y1="83.6216" x2="44.3862" y2="3.6221">
	<stop  offset="0" style="stop-color:#1C75BC"/>
	<stop  offset="0.5333" style="stop-color:#262262"/>
	<stop  offset="1" style="stop-color:#0F112B"/>
</linearGradient>
<path display="none" fill="url(#SVGID_1_)" d="M84.499,71.622c0,6.627-5.373,12-12,12H16.273c-6.627,0-12-5.373-12-12v-56
	c0-6.627,5.373-12,12-12h56.225c6.627,0,12,5.373,12,12V71.622z"/>
<g display="none">
	<path display="inline" fill-rule="evenodd" clip-rule="evenodd" fill="#FFFFFF" d="M65.75,40.71L65.75,40.71
		c-0.479,0-0.865-0.389-0.865-0.867v-4.406c0-0.48,0.387-0.867,0.865-0.867h8.885c1.477,0,2.678,1.166,2.678,2.6l-0.074,2.673
		c0,0.478-0.389,0.867-0.869,0.867H65.75z M51.158,40.71L51.158,40.71c-0.478,0-0.866-0.389-0.866-0.867v-4.406
		c0-0.48,0.388-0.867,0.866-0.867h10.62c0.479,0,0.867,0.387,0.867,0.867v4.406c0,0.478-0.389,0.867-0.867,0.867H51.158z
		 M36.566,40.71L36.566,40.71c-0.479,0-0.868-0.389-0.868-0.867v-4.406c0-0.48,0.39-0.867,0.868-0.867h10.619
		c0.478,0,0.866,0.387,0.866,0.867v4.406c0,0.478-0.388,0.867-0.866,0.867H36.566z M21.973,40.637v0.069
		c-0.024,0.002-0.047,0.004-0.073,0.004c-0.477,0-0.867-0.389-0.867-0.867v-4.406c0-0.48,0.39-0.867,0.867-0.867
		c0.025,0,0.049,0,0.073,0.002l10.621-0.002c0.477,0,0.867,0.387,0.867,0.867v4.406c0,0.478-0.39,0.867-0.867,0.867L21.973,40.637z
		 M17.927,35.437L17.927,35.437c0-0.48-0.387-0.867-0.867-0.867l-2.6,0.002c-0.024-0.002-0.05-0.002-0.074-0.002
		c-0.478,0-0.866,0.387-0.866,0.867l0.004,12.857c0.038,0.449,0.413,0.793,0.862,0.793c0.024,0,0.05,0,0.074-0.001l2.6,0.001
		c0.452,0,0.827-0.344,0.865-0.793L17.927,35.437z M10.92,51.69v0.07c-0.023,0-0.048,0.001-0.072,0.001
		c-0.958,0-1.735-0.777-1.735-1.734v-7.512c0-0.477,0.389-0.867,0.867-0.867l0.437-9.824c0.039-0.449,0.414-0.794,0.866-0.794
		c0.024,0,0.048,0.002,0.072,0.003l0.433-0.003h63.715c2.436,0,4.406,1.974,4.406,4.407v13.291l-15.24,3.106
		c0.145-0.433,0.217-0.867,0.217-1.374c0-2.383-2.023-4.404-4.408-4.404c-2.455,0-4.406,2.021-4.406,4.404
		c0,0.507,0,0.941,0.145,1.374H29.269c0.145-0.433,0.218-0.867,0.218-1.374c0-2.383-2.024-4.404-4.407-4.404
		c-2.458,0-4.479,2.021-4.479,4.404c0,0.507,0.072,0.941,0.216,1.374L10.92,51.69z"/>
	<path display="inline" fill-rule="evenodd" clip-rule="evenodd" fill="#FFFFFF" d="M25.08,46.922L25.08,46.922
		c1.954,0,3.541,1.583,3.541,3.538s-1.587,3.541-3.541,3.541c-1.954,0-3.541-1.587-3.541-3.541S23.125,46.922,25.08,46.922
		 M25.007,48.728L25.007,48.728c0.957,0,1.733,0.775,1.733,1.732c0,0.958-0.777,1.735-1.733,1.735c-0.956,0-1.734-0.777-1.734-1.735
		C23.272,49.502,24.051,48.728,25.007,48.728"/>
	<path display="inline" fill-rule="evenodd" clip-rule="evenodd" fill="#FFFFFF" d="M60.477,46.922L60.477,46.922
		c1.957,0,3.543,1.583,3.543,3.538s-1.586,3.541-3.543,3.541c-1.953,0-3.539-1.587-3.539-3.541S58.524,46.922,60.477,46.922
		 M60.407,48.728L60.407,48.728c0.955,0,1.732,0.775,1.732,1.732c0,0.958-0.777,1.735-1.732,1.735c-0.959,0-1.734-0.777-1.734-1.735
		C58.672,49.502,59.448,48.728,60.407,48.728"/>
</g>
<g>
	<g>
		<path fill="#FFFFFF" d="M38.838,10.377H25.392v25.486h5.36v-9.916h8.086c3.218,0,5.828-2.609,5.828-5.828v-3.915
			C44.667,12.986,42.057,10.377,38.838,10.377z M39.295,19.306c0,1.375-1.115,2.489-2.489,2.489H30.78v-7.218h6.026
			c1.375,0,2.489,1.115,2.489,2.489V19.306z"/>
		<text transform="matrix(1 0 0 1 51.9165 31.6665)" fill="#FFFFFF" font-family="'Arial-Black'" font-size="18">+</text>
	</g>
	<path fill-rule="evenodd" clip-rule="evenodd" fill="#FFFFFF" d="M65.642,55.603L65.642,55.603c-0.438,0-0.794-0.356-0.794-0.795
		v-4.04c0-0.44,0.355-0.795,0.794-0.795h8.146c1.354,0,2.453,1.069,2.453,2.383l-0.068,2.451c0,0.438-0.355,0.795-0.794,0.795
		H65.642z M52.264,55.603L52.264,55.603c-0.438,0-0.794-0.356-0.794-0.795v-4.04c0-0.44,0.355-0.795,0.794-0.795H62
		c0.438,0,0.794,0.355,0.794,0.795v4.04c0,0.438-0.356,0.795-0.794,0.795H52.264z M38.887,55.603L38.887,55.603
		c-0.438,0-0.796-0.356-0.796-0.795v-4.04c0-0.44,0.357-0.795,0.796-0.795h9.734c0.438,0,0.794,0.355,0.794,0.795v4.04
		c0,0.438-0.355,0.795-0.794,0.795H38.887z M25.508,55.536v0.063c-0.022,0.002-0.044,0.004-0.066,0.004
		c-0.438,0-0.795-0.356-0.795-0.795v-4.04c0-0.44,0.357-0.795,0.795-0.795c0.022,0,0.044,0,0.066,0.002l9.736-0.002
		c0.438,0,0.795,0.355,0.795,0.795v4.04c0,0.438-0.357,0.795-0.795,0.795L25.508,55.536z M21.799,50.769L21.799,50.769
		c0-0.44-0.354-0.795-0.795-0.795l-2.383,0.002c-0.022-0.002-0.046-0.002-0.068-0.002c-0.438,0-0.794,0.355-0.794,0.795
		l0.004,11.787c0.035,0.412,0.379,0.728,0.79,0.728c0.022,0,0.046,0,0.068-0.002l2.383,0.002c0.414,0,0.758-0.315,0.793-0.728
		L21.799,50.769z M15.376,65.668v0.063c-0.022,0-0.044,0.002-0.066,0.002c-0.879,0-1.591-0.713-1.591-1.59v-6.887
		c0-0.438,0.356-0.795,0.794-0.795l0.4-9.006c0.035-0.411,0.379-0.728,0.793-0.728c0.022,0,0.044,0.002,0.066,0.003l0.397-0.003
		h58.412c2.23,0,4.039,1.809,4.039,4.041v12.184L64.651,65.8c0.131-0.396,0.197-0.794,0.197-1.26c0-2.185-1.854-4.037-4.04-4.037
		c-2.252,0-4.041,1.853-4.041,4.037c0,0.466,0,0.863,0.133,1.26H32.198c0.133-0.396,0.199-0.794,0.199-1.26
		c0-2.185-1.856-4.037-4.041-4.037c-2.253,0-4.105,1.853-4.105,4.037c0,0.466,0.066,0.863,0.198,1.26L15.376,65.668z"/>
	<path fill-rule="evenodd" clip-rule="evenodd" fill="#FFFFFF" d="M28.356,61.297L28.356,61.297c1.792,0,3.246,1.452,3.246,3.243
		c0,1.792-1.454,3.246-3.246,3.246c-1.791,0-3.245-1.454-3.245-3.246C25.111,62.75,26.565,61.297,28.356,61.297 M28.29,62.953
		L28.29,62.953c0.878,0,1.59,0.711,1.59,1.588c0,0.879-0.712,1.592-1.59,1.592c-0.876,0-1.59-0.713-1.59-1.592
		C26.7,63.664,27.414,62.953,28.29,62.953"/>
	<path fill-rule="evenodd" clip-rule="evenodd" fill="#FFFFFF" d="M60.808,61.297L60.808,61.297c1.792,0,3.246,1.452,3.246,3.243
		c0,1.792-1.454,3.246-3.246,3.246c-1.791,0-3.245-1.454-3.245-3.246C57.563,62.75,59.017,61.297,60.808,61.297 M60.744,62.953
		L60.744,62.953c0.876,0,1.587,0.711,1.587,1.588c0,0.879-0.711,1.592-1.587,1.592c-0.879,0-1.592-0.713-1.592-1.592
		C59.152,63.664,59.865,62.953,60.744,62.953"/>
</g>
<g display="none">
	<path display="inline" fill="#ED1C24" d="M71.932,70.358c1.404-0.033,2.756-0.775,3.51-2.08c0.752-1.305,0.719-2.848,0.047-4.08
		L48.223,16.969c-0.731-1.198-2.05-1.999-3.557-1.999c-1.506,0-2.826,0.8-3.557,1.999L13.844,64.198
		c-0.673,1.232-0.706,2.775,0.047,4.08c0.753,1.305,2.106,2.047,3.51,2.08H71.932z"/>
	<polygon display="inline" fill="#FFFFFF" points="44.666,21.963 19.885,64.885 69.448,64.885 	"/>
	<path display="inline" d="M45.249,53.813l4.023-16.214c0,0,0.163-0.464,0.163-1.151c0-2.669-2.181-4.741-4.769-4.741
		c-2.587,0-4.768,2.072-4.768,4.741c0,0.687,0.163,1.151,0.163,1.151l4.023,16.214H45.249z"/>
	<circle display="inline" cx="44.666" cy="59.377" r="3.678"/>
</g>
<linearGradient id="SVGID_2_" gradientUnits="userSpaceOnUse" x1="44.3862" y1="34.1836" x2="44.3862" y2="3.6216">
	<stop  offset="0" style="stop-color:#000000;stop-opacity:0"/>
	<stop  offset="0.7504" style="stop-color:#000000;stop-opacity:0.9104"/>
	<stop  offset="0.8242" style="stop-color:#000000"/>
</linearGradient>
<path display="none" opacity="0.8" fill="url(#SVGID_2_)" d="M72.499,3.622H16.273c-6.627,0-12,5.373-12,12v12.832
	c10.987,3.582,24.929,5.73,40.113,5.73c15.183,0,29.125-2.148,40.112-5.73V15.622C84.499,8.994,79.125,3.622,72.499,3.622z"/>
<g display="none">
	<circle display="inline" fill="#FFFFFF" cx="59.85" cy="61.451" r="3.721"/>
	<circle display="inline" fill="#FFFFFF" cx="67.981" cy="61.451" r="3.721"/>
	<path display="inline" fill="#FFFFFF" d="M72.114,53.266h-2.285V41.679h-3.085c0,0-0.266-1.727,0.93-1.727c0-0.345,0-1.86,0-1.86
		h-7.308c0,0,0,1.515,0,1.86c1.196,0,0.931,1.727,0.931,1.727H47.08c0,0,0.345-2.205-1.701-3.641h-3.428
		c-2.046,1.436-1.701,3.641-1.701,3.641h-9.489v-3.614H20.081v4.571h4.066v6.723h-6.352v7.946h2.272
		c-0.303,0.696-0.472,1.465-0.472,2.271c0,3.146,2.549,5.694,5.694,5.694c3.144,0,5.693-2.549,5.693-5.694
		c0-0.807-0.168-1.575-0.472-2.271h1.834c-0.303,0.696-0.472,1.465-0.472,2.271c0,3.146,2.549,5.694,5.694,5.694
		c3.144,0,5.693-2.549,5.693-5.694c0-0.807-0.168-1.575-0.472-2.271h1.755c-0.304,0.696-0.472,1.465-0.472,2.271
		c0,3.146,2.549,5.694,5.693,5.694s5.694-2.549,5.694-5.694c0-0.807-0.169-1.575-0.472-2.271h17.127V53.266z"/>
	<path display="inline" fill="#FFFFFF" d="M56.022,22.306c-1.228-2.266-3.778-3.81-6.537-3.81c-0.336,0-0.667,0.023-0.991,0.068
		c-1.414-1.951-3.71-3.22-6.304-3.22c-4.296,0-7.779,3.483-7.779,7.78c0,4.296,3.483,7.779,7.779,7.779
		c0.671,0,1.323-0.085,1.944-0.245c1.327,1.448,3.233,2.354,5.351,2.354c1.109,0,2.159-0.249,3.099-0.693
		c0.945,1.368,2.525,2.265,4.315,2.265c1.031,0,1.994-0.298,2.806-0.813c0,0,0.542-0.384,1.061-0.384s1.435,0.917,1.435,1.276
		c0,0.358,0,2.95,0,2.95h3.589C65.79,37.614,67.264,26.173,56.022,22.306z"/>
</g>
</svg>
