<?xml version="1.0" encoding="UTF-8" standalone="no"?>
<!-- Created with Inkscape (http://www.inkscape.org/) -->

<svg
   xmlns:dc="http://purl.org/dc/elements/1.1/"
   xmlns:cc="http://creativecommons.org/ns#"
   xmlns:rdf="http://www.w3.org/1999/02/22-rdf-syntax-ns#"
   xmlns:svg="http://www.w3.org/2000/svg"
   xmlns="http://www.w3.org/2000/svg"
   version="1.0"
   width="445"
   height="62"
   id="svg2">
  <defs
     id="defs4" />
  <metadata
     id="metadata7">
    <rdf:RDF>
      <cc:Work
         rdf:about="">
        <dc:format>image/svg+xml</dc:format>
        <dc:type
           rdf:resource="http://purl.org/dc/dcmitype/StillImage" />
        <dc:title></dc:title>
      </cc:Work>
    </rdf:RDF>
  </metadata>
  <g
     transform="translate(214.72887,42.30526)"
     id="layer1">
    <text
       x="-224.89519"
       y="0.40587655"
       transform="scale(0.98454307,1.0156996)"
       id="text12"
       xml:space="preserve"
       style="font-size:74.81982422px;font-style:normal;font-weight:normal;fill:#ffffff;fill-opacity:1;stroke:none;font-family:Bitstream Vera Sans"><tspan
         x="-224.89519"
         y="0.40587655"
         id="tspan14">m</tspan></text>
    <text
       x="-195.96808"
       y="18.460054"
       transform="scale(1.0003304,0.99966971)"
       id="text12-3"
       xml:space="preserve"
       style="font-size:67.17195892px;font-style:normal;font-weight:normal;fill:#ffffff;fill-opacity:1;stroke:none;font-family:Bitstream Vera Sans"><tspan
         x="-195.96808"
         y="18.460054"
         id="tspan14-7">.</tspan></text>
    <path
       d="m -153.58309,-23.438707 0,5.958919 c 1.66002,0.908848 1.87434,1.435686 3.40182,3.512336 2.12882,2.869612 3.22382,6.7559952 3.22386,11.6787868 -4e-5,4.9475713 -1.09504,8.8897603 -3.22386,11.7593297 -2.12889,2.8695905 -4.98501,4.2688045 -8.62384,4.2687995 -3.68838,5e-6 -6.57559,-1.423947 -8.70443,-4.2687995 -2.10411,-2.8695694 -3.14328,-6.7870217 -3.14327,-11.7593297 -1e-5,-4.9722682 1.0144,-8.9144568 3.14327,-11.7593308 1.33052,-1.793467 0.98884,-2.355866 2.5965,-3.189516 l 0,-6.041397 c -4.1757,0.672616 -5.28709,1.970748 -7.91587,4.962115 -3.36657,3.859128 -5.0776,9.2005291 -5.07759,16.0281288 -1e-5,6.8029028 1.71102,12.1443042 5.07759,16.0281292 3.3913,3.859093 8.05804,5.799121 14.0238,5.799121 5.94096,0 10.63246,-1.940028 14.02381,-5.799121 3.39127,-3.883825 5.07754,-9.2252264 5.07758,-16.0281292 -4e-5,-6.8275997 -1.68631,-12.1690008 -5.07758,-16.0281288 -2.81599,-3.20434 -4.22793,-4.578247 -8.80179,-5.121913 z"
       id="text12-2"
       style="font-size:29.48507309px;font-style:normal;font-weight:normal;fill:#ffffff;fill-opacity:1;stroke:none;font-family:Bitstream Vera Sans" />
    <text
       x="-144.29088"
       y="18.460054"
       transform="scale(1.0003304,0.99966971)"
       id="text12-2-0"
       xml:space="preserve"
       style="font-size:76.0195694px;font-style:normal;font-weight:normal;fill:#ffffff;fill-opacity:1;stroke:none;font-family:Bitstream Vera Sans"><tspan
         x="-144.29088"
         y="18.460054"
         id="tspan14-6-2">x</tspan></text>
    <text
       x="-90.627823"
       y="7.2613454"
       transform="scale(1.00171,0.99829292)"
       id="text30"
       xml:space="preserve"
       style="font-size:52px;font-style:normal;font-variant:normal;font-weight:normal;font-stretch:normal;text-align:start;line-height:125%;writing-mode:lr-tb;text-anchor:start;fill:#ffffff;fill-opacity:1;stroke:none;font-family:Liberation Sans;-inkscape-font-specification:Liberation Sans"><tspan
         x="-90.627823"
         y="7.2613454"
         id="tspan32">Mobile Oxford</tspan></text>
    <text
       x="-145.04042"
       y="-27.489958"
       id="text883-3"
       xml:space="preserve"
       style="font-size:15.79425144px;font-style:normal;font-weight:normal;fill:#ffffff;fill-opacity:1;stroke:none;font-family:Bitstream Vera Sans"><tspan
         x="-145.04042"
         y="-27.489958"
         id="tspan885-9"
         style="font-style:italic;font-weight:bold;fill:#ffffff;fill-opacity:1;stroke:none">βήτα</tspan></text>
  </g>
</svg>
