<?xml version="1.0" encoding="UTF-8" standalone="no"?>
<!-- Created with Inkscape (http://www.inkscape.org/) -->

<svg
   xmlns:dc="http://purl.org/dc/elements/1.1/"
   xmlns:cc="http://creativecommons.org/ns#"
   xmlns:rdf="http://www.w3.org/1999/02/22-rdf-syntax-ns#"
   xmlns:svg="http://www.w3.org/2000/svg"
   xmlns="http://www.w3.org/2000/svg"
   xmlns:sodipodi="http://sodipodi.sourceforge.net/DTD/sodipodi-0.dtd"
   xmlns:inkscape="http://www.inkscape.org/namespaces/inkscape"
   width="75"
   height="75"
   id="svg1145"
   sodipodi:version="0.32"
   inkscape:version="0.46+devel"
   version="1.0"
   sodipodi:docname="webcams.svg"
   inkscape:output_extension="org.inkscape.output.svg.inkscape"
   inkscape:export-filename="/home/dev/erewhon/mobile_portal/mobile_portal/site-media/png/webcams.png"
   inkscape:export-xdpi="90"
   inkscape:export-ydpi="90">
  <defs
     id="defs1147">
    <inkscape:perspective
       sodipodi:type="inkscape:persp3d"
       inkscape:vp_x="0 : 526.18109 : 1"
       inkscape:vp_y="0 : 1000 : 0"
       inkscape:vp_z="744.09448 : 526.18109 : 1"
       inkscape:persp3d-origin="372.04724 : 350.78739 : 1"
       id="perspective1153" />
    <inkscape:perspective
       id="perspective2473"
       inkscape:persp3d-origin="0.5 : 0.33333333 : 1"
       inkscape:vp_z="1 : 0.5 : 1"
       inkscape:vp_y="0 : 1000 : 0"
       inkscape:vp_x="0 : 0.5 : 1"
       sodipodi:type="inkscape:persp3d" />
    <filter
       id="filter3151"
       inkscape:label="Button"
       inkscape:menu="Bevels"
       inkscape:menu-tooltip="Soft bevel, slightly depressed middle"
       x="0"
       y="0"
       width="1"
       height="1">
      <feTurbulence
         id="feTurbulence3153"
         numOctaves="5"
         baseFrequency="0.02"
         type="fractalNoise" />
      <feColorMatrix
         id="feColorMatrix3155"
         result="result0"
         values="1 0 0 0 0 0 1 0 0 0 0 0 1 0 0 0 0 0 1 0 " />
      <feFlood
         id="feFlood3157"
         flood-opacity="1"
         flood-color="rgb(255,255,255)" />
      <feComposite
         id="feComposite3159"
         operator="out"
         in2="result0" />
      <feComposite
         id="feComposite3161"
         operator="atop"
         in2="SourceGraphic"
         result="fbSourceGraphic" />
      <feColorMatrix
         result="fbSourceGraphicAlpha"
         in="fbSourceGraphic"
         values="0 0 0 -1 0 0 0 0 -1 0 0 0 0 -1 0 0 0 0 1 0"
         id="feColorMatrix3163" />
      <feGaussianBlur
         id="feGaussianBlur3165"
         stdDeviation="2.2533653846153845"
         in="fbSourceGraphicAlpha"
         result="result0" />
      <feMorphology
         id="feMorphology3167"
         in="fbSourceGraphicAlpha"
         radius="6.557377049180328"
         result="result1" />
      <feGaussianBlur
         id="feGaussianBlur3169"
         stdDeviation="8.8607894736842105"
         in="result1" />
      <feColorMatrix
         id="feColorMatrix3171"
         values="1 0 0 0 0 0 1 0 0 0 0 0 1 0 0 0 0 0 0.3 0" />
      <feComposite
         id="feComposite3173"
         in="result0"
         operator="out"
         result="result2" />
      <feGaussianBlur
         id="feGaussianBlur3175"
         stdDeviation="1.6844736842105263"
         result="result4" />
      <feDiffuseLighting
         id="feDiffuseLighting3177"
         surfaceScale="10">
        <feDistantLight
           id="feDistantLight3179"
           azimuth="225"
           elevation="45" />
      </feDiffuseLighting>
      <feBlend
         id="feBlend3181"
         blend="normal"
         in2="fbSourceGraphic"
         mode="multiply" />
      <feComposite
         id="feComposite3183"
         in2="fbSourceGraphicAlpha"
         operator="in"
         result="result3" />
      <feSpecularLighting
         id="feSpecularLighting3185"
         in="result4"
         surfaceScale="5"
         specularExponent="17.913551401869157">
        <feDistantLight
           id="feDistantLight3187"
           azimuth="225"
           elevation="45" />
      </feSpecularLighting>
      <feComposite
         id="feComposite3189"
         in2="result3"
         operator="atop" />
    </filter>
    <filter
       id="filter3191"
       inkscape:label="Specular light"
       inkscape:menu="ABCs"
       inkscape:menu-tooltip="Basic specular bevel to use for building textures">
      <feGaussianBlur
         id="feGaussianBlur3193"
         result="result0"
         in="SourceAlpha"
         stdDeviation="2.5" />
      <feSpecularLighting
         id="feSpecularLighting3195"
         specularExponent="35"
         specularConstant="1"
         surfaceScale="2"
         lighting-color="rgb(255,255,255)"
         result="result1"
         in="result0">
        <feDistantLight
           id="feDistantLight3197"
           azimuth="235"
           elevation="55" />
      </feSpecularLighting>
      <feComposite
         id="feComposite3199"
         operator="in"
         result="result2"
         in="result1"
         in2="SourceAlpha" />
      <feComposite
         id="feComposite3201"
         k3="0.99999999999999989"
         k2="0.99999999999999989"
         operator="arithmetic"
         result="result4"
         in="SourceGraphic" />
    </filter>
    <filter
       id="filter5605"
       inkscape:label="Specular light"
       inkscape:menu="ABCs"
       inkscape:menu-tooltip="Basic specular bevel to use for building textures">
      <feGaussianBlur
         id="feGaussianBlur5607"
         result="result0"
         in="SourceAlpha"
         stdDeviation="2.5" />
      <feSpecularLighting
         id="feSpecularLighting5609"
         specularExponent="35"
         specularConstant="1"
         surfaceScale="2"
         lighting-color="rgb(255,255,255)"
         result="result1"
         in="result0">
        <feDistantLight
           id="feDistantLight5611"
           azimuth="235"
           elevation="55" />
      </feSpecularLighting>
      <feComposite
         id="feComposite5613"
         operator="in"
         result="result2"
         in="result1"
         in2="SourceAlpha" />
      <feComposite
         id="feComposite5615"
         k3="0.99999999999999989"
         k2="0.99999999999999989"
         operator="arithmetic"
         result="result4"
         in="SourceGraphic" />
    </filter>
    <inkscape:perspective
       id="perspective193"
       inkscape:persp3d-origin="0.5 : 0.33333333 : 1"
       inkscape:vp_z="1 : 0.5 : 1"
       inkscape:vp_y="0 : 1000 : 0"
       inkscape:vp_x="0 : 0.5 : 1"
       sodipodi:type="inkscape:persp3d" />
    <filter
       id="filter1074"
       inkscape:label="Specular light"
       inkscape:menu="ABCs"
       inkscape:menu-tooltip="Basic specular bevel to use for building textures">
      <feGaussianBlur
         id="feGaussianBlur1076"
         result="result0"
         in="SourceAlpha"
         stdDeviation="2.5" />
      <feSpecularLighting
         id="feSpecularLighting1078"
         specularExponent="35"
         specularConstant="1"
         surfaceScale="2"
         lighting-color="rgb(255,255,255)"
         result="result1"
         in="result0">
        <feDistantLight
           id="feDistantLight1080"
           azimuth="235"
           elevation="55" />
      </feSpecularLighting>
      <feComposite
         id="feComposite1082"
         operator="in"
         result="result2"
         in="result1"
         in2="SourceAlpha" />
      <feComposite
         id="feComposite1084"
         k3="0.99999999999999989"
         k2="0.99999999999999989"
         operator="arithmetic"
         result="result4"
         in="SourceGraphic" />
    </filter>
    <filter
       id="filter1086"
       inkscape:label="Specular light"
       inkscape:menu="ABCs"
       inkscape:menu-tooltip="Basic specular bevel to use for building textures">
      <feGaussianBlur
         id="feGaussianBlur1088"
         result="result0"
         in="SourceAlpha"
         stdDeviation="2.5" />
      <feSpecularLighting
         id="feSpecularLighting1090"
         specularExponent="35"
         specularConstant="1"
         surfaceScale="2"
         lighting-color="rgb(255,255,255)"
         result="result1"
         in="result0">
        <feDistantLight
           id="feDistantLight1092"
           azimuth="235"
           elevation="55" />
      </feSpecularLighting>
      <feComposite
         id="feComposite1094"
         operator="in"
         result="result2"
         in="result1"
         in2="SourceAlpha" />
      <feComposite
         id="feComposite1096"
         k3="0.99999999999999989"
         k2="0.99999999999999989"
         operator="arithmetic"
         result="result4"
         in="SourceGraphic" />
    </filter>
    <filter
       id="filter1147"
       inkscape:label="Specular light"
       inkscape:menu="ABCs"
       inkscape:menu-tooltip="Basic specular bevel to use for building textures">
      <feGaussianBlur
         id="feGaussianBlur1149"
         result="result0"
         in="SourceAlpha"
         stdDeviation="2.5" />
      <feSpecularLighting
         id="feSpecularLighting1151"
         specularExponent="35"
         specularConstant="1"
         surfaceScale="2"
         lighting-color="rgb(255,255,255)"
         result="result1"
         in="result0">
        <feDistantLight
           id="feDistantLight1153"
           azimuth="235"
           elevation="55" />
      </feSpecularLighting>
      <feComposite
         id="feComposite1155"
         operator="in"
         result="result2"
         in="result1"
         in2="SourceAlpha" />
      <feComposite
         id="feComposite1157"
         k3="0.99999999999999989"
         k2="0.99999999999999989"
         operator="arithmetic"
         result="result4"
         in="SourceGraphic" />
    </filter>
    <inkscape:perspective
       id="perspective1869"
       inkscape:persp3d-origin="0.5 : 0.33333333 : 1"
       inkscape:vp_z="1 : 0.5 : 1"
       inkscape:vp_y="0 : 1000 : 0"
       inkscape:vp_x="0 : 0.5 : 1"
       sodipodi:type="inkscape:persp3d" />
    <filter
       id="filter1939"
       inkscape:label="Specular light"
       inkscape:menu="ABCs"
       inkscape:menu-tooltip="Basic specular bevel to use for building textures">
      <feGaussianBlur
         id="feGaussianBlur1941"
         result="result0"
         in="SourceAlpha"
         stdDeviation="2.5" />
      <feSpecularLighting
         id="feSpecularLighting1943"
         specularExponent="35"
         specularConstant="1"
         surfaceScale="2"
         lighting-color="rgb(255,255,255)"
         result="result1"
         in="result0">
        <feDistantLight
           id="feDistantLight1945"
           azimuth="235"
           elevation="55" />
      </feSpecularLighting>
      <feComposite
         id="feComposite1947"
         operator="in"
         result="result2"
         in="result1"
         in2="SourceAlpha" />
      <feComposite
         id="feComposite1949"
         k3="0.99999999999999989"
         k2="0.99999999999999989"
         operator="arithmetic"
         result="result4"
         in="SourceGraphic" />
    </filter>
    <filter
       id="filter2011"
       inkscape:label="Specular light"
       inkscape:menu="ABCs"
       inkscape:menu-tooltip="Basic specular bevel to use for building textures">
      <feGaussianBlur
         id="feGaussianBlur2013"
         result="result0"
         in="SourceAlpha"
         stdDeviation="2.5" />
      <feSpecularLighting
         id="feSpecularLighting2015"
         specularExponent="35"
         specularConstant="1"
         surfaceScale="2"
         lighting-color="rgb(255,255,255)"
         result="result1"
         in="result0">
        <feDistantLight
           id="feDistantLight2017"
           azimuth="235"
           elevation="55" />
      </feSpecularLighting>
      <feComposite
         id="feComposite2019"
         operator="in"
         result="result2"
         in="result1"
         in2="SourceAlpha" />
      <feComposite
         id="feComposite2021"
         k3="0.99999999999999989"
         k2="0.99999999999999989"
         operator="arithmetic"
         result="result4"
         in="SourceGraphic" />
    </filter>
  </defs>
  <sodipodi:namedview
     id="base"
     pagecolor="#ffffff"
     bordercolor="#666666"
     borderopacity="1.0"
     inkscape:pageopacity="0"
     inkscape:pageshadow="2"
     inkscape:zoom="5.6568542"
     inkscape:cx="63.038042"
     inkscape:cy="44.265152"
     inkscape:document-units="px"
     inkscape:current-layer="layer1"
     showgrid="false"
     inkscape:window-width="1280"
     inkscape:window-height="953"
     inkscape:window-x="0"
     inkscape:window-y="25" />
  <metadata
     id="metadata1150">
    <rdf:RDF>
      <cc:Work
         rdf:about="">
        <dc:format>image/svg+xml</dc:format>
        <dc:type
           rdf:resource="http://purl.org/dc/dcmitype/StillImage" />
        <dc:title></dc:title>
      </cc:Work>
    </rdf:RDF>
  </metadata>
  <g
     inkscape:label="Layer 1"
     inkscape:groupmode="layer"
     id="layer1">
    <g
       id="g1994"
       style="filter:url(#filter2011)"
       inkscape:export-xdpi="90"
       inkscape:export-ydpi="90">
      <rect
         ry="9.8571434"
         y="3"
         x="3"
         height="69"
         width="69"
         id="rect1159"
         style="fill:#002147;fill-opacity:1" />
      <g
         id="g1979">
        <path
           style="fill:#38526f;fill-opacity:1;stroke:none"
           d="m 61.254681,56.087853 c 0,3.195367 -1.728894,5.788708 -3.859138,5.788708 -2.130244,0 -3.859138,-2.593341 -3.859138,-5.788708 0,-3.195366 1.728894,-5.788707 3.859138,-5.788707 2.130244,0 3.859138,2.593341 3.859138,5.788707 z"
           id="path4307" />
        <path
           d="m 10.968182,44.519354 15.436553,7.476154 0,7.960398 -15.436553,-7.718276 0,-7.718276 z"
           id="path9965"
           style="fill:#073973;fill-opacity:1;fill-rule:evenodd;stroke:none"
           sodipodi:nodetypes="ccccc" />
        <path
           style="fill:#ffffff;fill-opacity:1;stroke:none"
           d="m 57.277839,48.427966 c -1.848141,0 -3.39195,1.108151 -4.34153,2.532559 -0.949579,1.424408 -1.447177,3.240017 -1.447177,5.185717 0,1.9457 0.497598,3.640711 1.447177,5.065119 0.94958,1.424408 2.493389,2.653157 4.34153,2.653157 1.848142,0 3.391951,-1.228749 4.341531,-2.653157 0.949579,-1.424408 1.447177,-3.119419 1.447177,-5.065119 0,-1.9457 -0.497598,-3.761309 -1.447177,-5.185717 -0.94958,-1.424408 -2.493389,-2.532559 -4.341531,-2.532559 z m 0,3.859138 c 0.282103,0 0.637955,0.172889 1.085383,0.844186 0.447429,0.671105 0.844186,1.765286 0.844186,3.014952 0,1.249666 -0.396757,2.343848 -0.844186,3.014952 -0.447428,0.671104 -0.80328,0.844186 -1.085383,0.844186 -0.282103,0 -0.637954,-0.172889 -1.085382,-0.844186 -0.447429,-0.671104 -0.844187,-1.765286 -0.844187,-3.014952 0,-1.249666 0.396758,-2.343847 0.844187,-3.014952 0.447428,-0.671104 0.803279,-0.844186 1.085382,-0.844186 z"
           id="path9967" />
        <path
           style="fill:#ffffff;fill-opacity:1;fill-rule:evenodd;stroke:none"
           d="m 41.396599,46.411952 c -0.874443,0.225374 -1.475658,1.026994 -1.447177,1.929569 l 0,15.436553 c -0.02701,0.67805 0.305644,1.319979 0.874172,1.690649 0.568335,0.370478 1.289608,0.415591 1.899583,0.118476 l 14.833562,-7.356482 c 0.761254,-0.197974 1.326193,-0.838089 1.427959,-1.618059 0.101881,-0.779971 -0.280174,-1.543617 -0.965132,-1.930226 -0.684997,-0.386569 -1.536092,-0.318764 -2.1512,0.171346 l -12.059806,5.909305 0,-12.4216 c 0.0193,-0.607467 -0.248529,-1.188499 -0.72328,-1.568161 -0.474558,-0.379739 -1.100279,-0.513574 -1.688681,-0.361601 z"
           id="path9969" />
        <path
           d="m 26.364368,60.682234 23.154829,-11.900231 0.04052,-8.121787 -23.154829,11.355475 -0.04052,8.666543 z"
           id="path9971"
           style="fill:#073973;fill-opacity:1;fill-rule:evenodd;stroke:none"
           sodipodi:nodetypes="ccccc" />
        <path
           d="m 10.968182,44.519354 c 0,0 19.295691,-11.436016 23.154829,-11.577415 3.859138,-0.141244 15.436552,7.718277 15.436552,7.718277 0,0 -15.436552,11.436015 -23.154828,11.436015 -5.972364,0 -15.436553,-7.576877 -15.436553,-7.576877 z"
           sodipodi:nodetypes="czczc"
           id="path9973"
           style="fill:#38526f;fill-opacity:1;fill-rule:evenodd;stroke:none" />
        <path
           style="fill:#ffffff;fill-opacity:1;fill-rule:evenodd;stroke:none;stroke-opacity:1"
           d="m 34.040117,30.9754 c -1.52436,0.05596 -3.367639,0.644707 -5.788708,1.447177 -2.421068,0.802469 -5.241944,1.918416 -7.959472,3.135549 -2.717528,1.217134 -5.330203,2.491267 -7.356482,3.859138 -1.013139,0.683917 -1.832975,1.404109 -2.532559,2.170766 -0.6995849,0.766656 -1.326579,1.618715 -1.326579,2.894353 0,4.000537 0,4.000537 0,7.718276 0,1.93092 1.180703,3.269076 2.532559,4.341531 1.351856,1.072454 3.034055,1.987919 4.823923,2.773755 3.579736,1.571673 7.320592,2.631083 10.009639,2.53256 1.52436,-0.05596 3.367639,-0.52411 5.788708,-1.326579 2.421068,-0.802469 5.241944,-1.918416 7.959472,-3.13555 2.717528,-1.217133 5.330203,-2.611903 7.356482,-3.979736 1.013139,-0.683916 1.953573,-1.283549 2.653157,-2.050167 0.699585,-0.766618 1.326579,-1.739314 1.326579,-3.014952 0,-4.000537 0,-4.000537 0,-7.718276 0,-1.93092 -1.301301,-3.148478 -2.653157,-4.220932 C 47.521823,35.329858 45.839624,34.414394 44.049756,33.628557 40.469981,32.056885 36.729164,30.876876 34.040117,30.9754 z m 0.120405,3.859138 c 1.170052,-0.04284 5.14755,0.897983 8.321266,2.291363 1.586916,0.69669 3.040268,1.546009 3.979736,2.291363 0.939508,0.745354 1.205981,1.278031 1.205981,1.205981 0,3.717739 0,3.717739 0,7.718276 0,-0.275542 0.0077,-0.04438 -0.361601,0.361601 -0.370863,0.406291 -1.073419,0.989831 -1.929569,1.567775 -1.712261,1.155889 -4.164705,2.458464 -6.753492,3.617942 -2.588787,1.159478 -5.315422,2.137886 -7.597678,2.894354 -2.282256,0.756468 -4.298115,1.191123 -4.703325,1.205981 -1.17009,0.04284 -5.14755,-0.777385 -8.321266,-2.170766 -1.586878,-0.69669 -3.040229,-1.546009 -3.979736,-2.291363 -0.939508,-0.745354 -1.085383,-1.398629 -1.085383,-1.326579 0,-3.717739 0,-3.717739 0,-7.718276 0,0.275543 -0.129667,0.04438 0.241196,-0.361601 0.370863,-0.40629 1.073458,-0.869232 1.929569,-1.447177 1.712261,-1.155889 4.164705,-2.458464 6.753492,-3.617942 2.588787,-1.159478 5.315422,-2.258483 7.597678,-3.014951 2.282256,-0.756469 4.298115,-1.191123 4.703325,-1.205981 z"
           id="path9975" />
        <path
           style="fill:#ffffff;fill-opacity:1;stroke:none"
           d="m 16.29935,48.378492 c -0.566058,0 -1.123279,0.08336 -1.688373,0.361601 -0.565094,0.278244 -1.163723,0.952011 -1.326579,1.688373 -0.325711,1.472686 0.590526,2.360943 1.447177,3.13555 1.713303,1.549328 4.006789,2.532636 6.2711,2.532559 0.566058,0 1.123279,-0.08336 1.688372,-0.361601 0.565094,-0.278244 1.163724,-0.831413 1.326579,-1.567775 0.325711,-1.472724 -0.469888,-2.360905 -1.326579,-3.13555 -1.713302,-1.549251 -4.127425,-2.653157 -6.391697,-2.653157 z"
           id="path9977" />
        <path
           style="fill:#ffffff;fill-opacity:1;stroke:none"
           d="m 49.780229,8.9605606 c 4.803623,0 8.68306,3.8794754 8.68306,8.6830604 0,4.693677 -3.75139,8.509323 -8.441864,8.683061 l 0.120405,1.929569 c 5.70261,-0.211095 10.250836,-4.906122 10.250836,-10.61263 0,-5.847636 -4.765033,-10.6126295 -10.61263,-10.6126295 l 0,1.9295691 z"
           id="path37550" />
        <path
           style="fill:#ffffff;fill-opacity:1;stroke:none"
           d="m 41.676772,8.9605606 c -4.803585,0 -8.683061,3.8794754 -8.683061,8.6830604 0,4.693677 3.751391,8.509323 8.441865,8.683061 l -0.120405,1.929569 c -5.70261,-0.211095 -10.250836,-4.906122 -10.250836,-10.61263 0,-5.847636 4.764994,-10.6126295 10.61263,-10.6126295 l 0,1.9295691 z"
           id="path37548" />
        <path
           style="fill:#ffffff;fill-opacity:1;stroke:none"
           d="m 48.815444,12.819699 c 2.67338,0 4.823923,2.150582 4.823923,4.823922 0,2.61364 -2.09146,4.727174 -4.703325,4.823923 l 0.120405,1.929569 c 3.623963,-0.134298 6.512296,-3.127021 6.512296,-6.753492 0,-3.717392 -3.0361,-6.753491 -6.753492,-6.753491 l 0,1.929569 z"
           id="path37556" />
        <path
           style="fill:#ffffff;fill-opacity:1;stroke:none"
           d="m 42.641557,12.819699 c -2.673341,0 -4.823923,2.150582 -4.823923,4.823922 0,2.61364 2.09146,4.727174 4.703324,4.823923 l -0.120405,1.929569 c -3.623962,-0.134298 -6.512295,-3.127021 -6.512295,-6.753492 0,-3.717392 3.0361,-6.753491 6.753491,-6.753491 l 0,1.929569 z"
           id="path37554" />
        <path
           style="fill:#ffffff;fill-opacity:1;fill-rule:evenodd;stroke:none"
           d="m 43.929158,16.865426 0,18.813298 3.859138,0 0,-18.813298 -3.859138,0 z"
           id="path9979" />
      </g>
    </g>
  </g>
</svg>
